<svg version="1.1" id="Layer_1" xmlns="http://www.w3.org/2000/svg" xmlns:xlink="http://www.w3.org/1999/xlink" x="0px" y="0px"
	 width="100%" viewBox="0 0 378 111" enable-background="new 0 0 378 111" xml:space="preserve">
<path fill="#FEFEFE" opacity="1.000000" stroke="none" 
	d="
M247.000000,112.000000 
	C164.666687,112.000000 82.833374,112.000000 1.000044,112.000000 
	C1.000029,75.000031 1.000029,38.000057 1.000015,1.000064 
	C126.999939,1.000042 252.999878,1.000042 378.999878,1.000021 
	C378.999908,37.999935 378.999908,74.999870 378.999939,111.999901 
	C335.166656,112.000000 291.333344,112.000000 247.000000,112.000000 
M82.986679,102.010818 
	C82.986679,102.010818 82.914856,102.048424 83.090370,102.544899 
	C83.396774,102.689629 83.703171,102.834358 84.001488,103.001434 
	C84.001488,103.001434 84.019913,102.984436 84.427353,103.520187 
	C85.281700,103.663399 86.136055,103.806610 87.814514,103.987114 
	C90.198662,103.490578 92.582802,102.994041 95.643524,102.439590 
	C101.803535,98.842697 102.701294,90.503746 96.967560,85.927216 
	C94.486580,83.946960 93.999481,81.982681 94.002586,79.211258 
	C94.020576,63.132336 93.935768,47.053299 94.232338,30.382254 
	C98.397263,27.507511 101.386833,23.917606 100.450867,18.486229 
	C99.615562,13.639020 96.550583,10.623595 91.803223,9.377933 
	C86.782539,8.060552 82.795502,10.480687 77.898544,17.565140 
	C77.720634,17.983702 77.542732,18.402266 77.585373,18.018614 
	C76.577103,17.653799 75.569252,16.972773 74.560509,16.971466 
	C58.708279,16.950974 42.855938,17.018023 26.318609,16.885679 
	C25.546732,15.882997 24.809057,14.851639 23.996813,13.882800 
	C21.115137,10.445570 17.931015,7.834612 12.974011,9.551877 
	C8.912517,10.958909 5.995279,13.493235 5.123029,17.771677 
	C4.172030,22.436392 5.908619,26.163469 9.625888,29.132612 
	C10.941397,30.183367 11.885799,31.698734 12.866410,33.931252 
	C12.913872,49.954807 12.961333,65.978363 12.893577,82.405968 
	C12.893577,82.405968 12.924829,82.824951 12.438863,83.160454 
	C11.900647,83.708099 11.362432,84.255737 10.963523,84.897667 
	C10.963523,84.897667 10.866306,84.760384 10.250595,84.777779 
	C9.809870,85.166237 9.369145,85.554695 8.985525,85.999283 
	C8.985525,85.999283 8.961898,85.922775 8.458927,86.086517 
	C8.278799,86.377823 8.098672,86.669121 7.998568,86.982018 
	C7.998568,86.982018 7.938942,86.924438 7.383415,87.184036 
	C7.168867,87.734680 6.954319,88.285332 6.817508,88.926186 
	C6.817508,88.926186 6.816675,88.807106 6.299205,88.973557 
	C6.181891,89.309937 6.064577,89.646317 6.001750,89.995949 
	C6.001750,89.995949 5.967774,89.951324 5.397038,90.485580 
	C5.551611,92.794403 5.706185,95.103226 5.855100,97.723656 
	C5.855100,97.723656 6.032902,97.979607 6.052694,98.620125 
	C6.693178,99.424362 7.333662,100.228592 8.002651,101.003242 
	C8.002651,101.003242 7.964711,101.017242 8.105371,101.524940 
	C8.400220,101.692284 8.695067,101.859634 8.998882,101.997749 
	C8.998882,101.997749 8.974284,102.016617 9.280134,102.545494 
	C9.821740,102.821793 10.363346,103.098091 11.453845,103.841698 
	C14.661513,103.647003 17.869181,103.452301 21.650211,103.100807 
	C22.066263,102.716423 22.482315,102.332039 22.975712,101.979370 
	C22.975712,101.979370 22.947815,101.900566 23.536089,101.677574 
	C24.093721,100.812851 24.651354,99.948128 25.705267,98.846123 
	C25.835274,98.716812 25.965279,98.587509 26.901762,98.535080 
	C44.252678,98.380890 61.603596,98.226700 79.004387,98.010696 
	C79.004387,98.010696 78.936783,98.052017 79.289993,98.498604 
	C79.771637,98.764542 80.253273,99.030479 80.739754,99.100128 
	C80.739754,99.100128 80.671516,99.284248 80.720940,99.870659 
	C81.128075,100.272362 81.535202,100.674072 81.996498,101.014160 
	C81.996498,101.014160 81.918571,101.039833 82.082512,101.541595 
	C82.373207,101.722824 82.663910,101.904045 82.986679,102.010818 
M364.944122,45.232613 
	C357.424774,40.409161 351.262268,40.616650 344.140167,46.130497 
	C338.583954,51.361942 337.410370,57.779045 339.748322,64.726372 
	C341.993988,71.399414 347.606750,75.041443 354.524719,75.050819 
	C361.449005,75.060204 367.342255,71.084320 369.960968,64.636681 
	C372.736511,57.802803 371.111359,51.209156 364.944122,45.232613 
M213.866425,42.272686 
	C210.936691,38.851334 209.224960,42.489502 206.322067,43.830692 
	C204.507706,44.424252 202.379272,44.600231 200.935272,45.686245 
	C195.681030,49.637909 193.620682,57.712315 195.886414,64.123512 
	C198.290894,70.927315 203.860123,75.000603 210.832001,75.054543 
	C217.789856,75.108391 224.150085,70.788513 226.554077,64.274216 
	C230.450287,53.716316 223.192719,42.620781 213.866425,42.272686 
M138.619766,56.228901 
	C142.835953,55.830212 147.251877,56.088993 151.222672,54.882607 
	C157.577484,52.951916 160.550079,47.631165 160.075562,41.071877 
	C159.669907,35.464558 156.799026,31.989025 149.660522,31.083679 
	C141.638809,30.066320 133.462463,30.251741 125.351120,29.982340 
	C124.519745,29.954729 123.672852,30.394608 122.353615,30.744884 
	C123.161697,31.647272 123.537598,32.457245 123.967461,32.486969 
	C128.481430,32.799118 129.080902,35.644405 128.995361,39.422215 
	C128.822296,47.065678 128.967239,54.715908 128.926712,62.363064 
	C128.914459,64.676193 129.423355,67.377747 128.415161,69.190315 
	C127.427902,70.965233 124.811920,71.834229 122.912003,73.102432 
	C125.523796,75.060188 140.320328,74.655121 142.421799,71.939430 
	C135.538467,72.819138 135.689682,68.297226 135.696457,63.950649 
	C135.700058,61.633751 135.872589,59.317120 136.906601,56.847801 
	C137.204163,56.739407 137.501709,56.631016 138.619766,56.228901 
M321.672729,47.948509 
	C322.111847,53.153004 322.719574,58.350513 322.935608,63.564255 
	C323.101990,67.579483 324.512543,72.495850 318.062408,73.865646 
	C323.485901,73.865646 328.909393,73.865646 334.332886,73.865646 
	C334.802307,73.324913 335.271759,72.784187 335.741180,72.243454 
	C327.903229,72.871010 329.254547,68.133942 329.200745,64.260986 
	C329.140625,59.934624 329.281952,55.602097 329.106781,51.281532 
	C328.875305,45.573719 325.271362,41.628830 319.643799,42.131569 
	C315.323212,42.517548 311.148102,44.532265 306.461731,45.958557 
	C300.941132,40.183392 296.383362,40.144669 286.394257,46.735970 
	C286.258331,45.014790 286.136963,43.477917 285.968903,41.349655 
	C281.969666,42.428577 278.416138,43.387260 274.862610,44.345940 
	C274.584564,44.905704 274.306519,45.465469 274.028473,46.025234 
	C280.906250,45.174458 280.270508,49.344429 280.303253,53.040562 
	C280.332733,56.369282 280.342743,59.698673 280.311371,63.027302 
	C280.271118,67.301003 281.360535,72.175011 275.091309,73.984299 
	C280.579834,73.984299 286.068359,73.984299 291.556885,73.984299 
	C285.128021,72.234337 286.219269,67.287956 286.201569,62.924545 
	C286.188080,59.595646 286.105042,56.263351 286.222290,52.938538 
	C286.365936,48.864689 290.234070,45.368923 294.499756,45.278576 
	C298.540100,45.193001 301.555756,48.068970 301.769165,52.531143 
	C301.943909,56.184704 301.833038,59.853355 301.802399,63.514927 
	C301.768524,67.558990 303.215210,72.354828 296.988678,73.874214 
	C302.280487,73.874214 307.572296,73.874214 312.864105,73.874214 
	C313.118988,73.468811 313.373871,73.063408 313.628754,72.658005 
	C307.232971,72.712685 307.917297,68.644806 307.996979,64.864105 
	C308.067108,61.536613 308.009735,58.206501 308.014709,54.877552 
	C308.027466,46.384109 313.520691,43.209770 321.672729,47.948509 
M190.796402,45.921120 
	C185.749817,36.714333 181.048172,45.125328 176.217422,46.347748 
	C176.058578,44.780251 175.914185,43.355434 175.708145,41.322208 
	C171.722656,42.437851 168.200409,43.423820 164.678162,44.409790 
	C164.617249,44.876839 164.556335,45.343891 164.495422,45.810944 
	C169.534790,45.668419 170.256592,48.453621 170.008698,52.325241 
	C169.743622,56.464668 169.883774,60.635582 169.968628,64.790268 
	C170.046967,68.626923 170.684464,72.699966 165.000320,73.744125 
	C170.326187,73.744125 175.652069,73.744125 180.413345,73.744125 
	C178.775925,71.601807 176.435303,69.920815 176.239853,68.019333 
	C175.698746,62.754715 175.890472,57.391659 176.104279,52.080059 
	C176.268494,48.000366 179.485886,46.414845 182.839035,46.298832 
	C183.774063,46.266476 184.825104,49.586956 186.264038,52.157299 
	C189.385941,52.709946 190.806976,50.438351 190.796402,45.921120 
M246.183014,44.128094 
	C245.832916,43.324120 245.340454,41.788280 245.153809,41.824585 
	C241.660065,42.504196 238.202621,43.370415 234.737564,44.197540 
	C239.988815,46.959549 239.997574,46.959557 239.993347,52.574707 
	C239.988220,59.386452 240.144577,66.204750 239.894180,73.007812 
	C239.701477,78.243233 238.657303,83.263924 233.368500,86.120880 
	C232.747787,86.456177 232.511215,87.502556 231.929321,88.508400 
	C239.005188,87.767380 244.048737,84.156563 244.807602,77.251907 
	C245.980148,66.582962 245.795334,55.764828 246.183014,44.128094 
M259.814392,60.462170 
	C259.134064,65.162369 262.657990,71.566368 254.634918,73.862366 
	C260.058197,73.862366 265.481476,73.862366 270.904724,73.862366 
	C271.424316,73.285622 271.943939,72.708870 272.463531,72.132126 
	C264.439514,73.185913 266.051056,68.465996 266.022430,64.833580 
	C265.962402,57.215736 266.004242,49.597095 266.004242,41.250034 
	C261.680237,42.377640 258.053375,43.323452 254.426498,44.269264 
	C254.305008,44.678768 254.183517,45.088268 254.062012,45.497772 
	C259.759247,45.838764 260.241791,49.335815 259.846375,53.501480 
	C259.658234,55.483234 259.814270,57.497669 259.814392,60.462170 
M246.950668,27.904533 
	C245.573181,25.325193 243.567642,23.958643 240.939056,25.901363 
	C239.701187,26.816235 238.234619,28.863792 238.510529,30.000223 
	C238.818359,31.268270 240.886032,32.727333 242.367264,32.959938 
	C245.205231,33.405594 247.163147,31.967276 246.950668,27.904533 
M258.123138,27.925188 
	C259.179749,29.631458 259.884521,32.043530 261.412109,32.805031 
	C262.497314,33.346016 265.099335,32.041477 266.236572,30.824476 
	C266.900726,30.113705 266.384033,26.863752 265.758118,26.652334 
	C263.876801,26.016855 261.680420,26.262251 259.608734,26.291235 
	C259.246887,26.296295 258.893707,26.918512 258.123138,27.925188 
z"/>
<path fill="#233C57" opacity="1.000000" stroke="none" 
	d="
M321.374359,47.638088 
	C313.520691,43.209770 308.027466,46.384109 308.014709,54.877552 
	C308.009735,58.206501 308.067108,61.536613 307.996979,64.864105 
	C307.917297,68.644806 307.232971,72.712685 313.628754,72.658005 
	C313.373871,73.063408 313.118988,73.468811 312.864105,73.874214 
	C307.572296,73.874214 302.280487,73.874214 296.988678,73.874214 
	C303.215210,72.354828 301.768524,67.558990 301.802399,63.514927 
	C301.833038,59.853355 301.943909,56.184704 301.769165,52.531143 
	C301.555756,48.068970 298.540100,45.193001 294.499756,45.278576 
	C290.234070,45.368923 286.365936,48.864689 286.222290,52.938538 
	C286.105042,56.263351 286.188080,59.595646 286.201569,62.924545 
	C286.219269,67.287956 285.128021,72.234337 291.556885,73.984299 
	C286.068359,73.984299 280.579834,73.984299 275.091309,73.984299 
	C281.360535,72.175011 280.271118,67.301003 280.311371,63.027302 
	C280.342743,59.698673 280.332733,56.369282 280.303253,53.040562 
	C280.270508,49.344429 280.906250,45.174458 274.028473,46.025234 
	C274.306519,45.465469 274.584564,44.905704 274.862610,44.345940 
	C278.416138,43.387260 281.969666,42.428577 285.968903,41.349655 
	C286.136963,43.477917 286.258331,45.014790 286.394257,46.735970 
	C296.383362,40.144669 300.941132,40.183392 306.461731,45.958557 
	C311.148102,44.532265 315.323212,42.517548 319.643799,42.131569 
	C325.271362,41.628830 328.875305,45.573719 329.106781,51.281532 
	C329.281952,55.602097 329.140625,59.934624 329.200745,64.260986 
	C329.254547,68.133942 327.903229,72.871010 335.741180,72.243454 
	C335.271759,72.784187 334.802307,73.324913 334.332886,73.865646 
	C328.909393,73.865646 323.485901,73.865646 318.062408,73.865646 
	C324.512543,72.495850 323.101990,67.579483 322.935608,63.564255 
	C322.719574,58.350513 322.111847,53.153004 321.374359,47.638088 
z"/>
<path fill="#233D58" opacity="1.000000" stroke="none" 
	d="
M135.968887,57.000366 
	C135.872589,59.317120 135.700058,61.633751 135.696457,63.950649 
	C135.689682,68.297226 135.538467,72.819138 142.421799,71.939430 
	C140.320328,74.655121 125.523796,75.060188 122.911407,73.101639 
	C124.811920,71.834229 127.427902,70.965233 128.415161,69.190315 
	C129.423355,67.377747 128.914459,64.676193 128.926712,62.363064 
	C128.967239,54.715908 128.822296,47.065678 128.995361,39.422215 
	C129.080902,35.644405 128.481430,32.799118 123.967461,32.486969 
	C123.537598,32.457245 123.161697,31.647272 122.353615,30.744884 
	C123.672852,30.394608 124.519745,29.954729 125.351120,29.982340 
	C133.462463,30.251741 141.638809,30.066320 149.660522,31.083679 
	C156.799026,31.989025 159.669907,35.464558 160.075562,41.071877 
	C160.550079,47.631165 157.577484,52.951916 151.222672,54.882607 
	C147.251877,56.088993 142.835953,55.830212 138.002411,56.104256 
	C136.912994,56.319862 136.440948,56.660114 135.968887,57.000366 
M138.526810,56.047489 
	C140.832504,55.047375 143.062912,53.478931 145.459045,53.161514 
	C151.018524,52.425034 154.344421,44.039288 152.156921,38.924889 
	C150.297729,34.578072 142.918198,30.747461 138.604507,32.652035 
	C137.398178,33.184639 136.031998,34.988602 135.992447,36.248714 
	C135.817429,41.823509 136.099106,47.412636 136.238983,53.649799 
	C136.702942,54.332466 137.166901,55.015133 138.526810,56.047489 
z"/>
<path fill="#F9FAFB" opacity="1.000000" stroke="none" 
	d="
M207.050980,43.448559 
	C209.224960,42.489502 210.936691,38.851334 213.940338,42.973900 
	C221.458084,49.391918 221.778641,57.089432 219.801376,65.268997 
	C218.806885,69.383011 216.496887,72.666077 211.788162,72.890770 
	C206.865158,73.125702 204.188446,70.191284 202.947800,65.728630 
	C200.700684,57.645817 201.875793,50.173996 207.050980,43.448559 
z"/>
<path fill="#55A4F7" opacity="1.000000" stroke="none" 
	d="
M12.999626,33.001984 
	C11.885799,31.698734 10.941397,30.183367 9.625888,29.132612 
	C5.908619,26.163469 4.172030,22.436392 5.123029,17.771677 
	C5.995279,13.493235 8.912517,10.958909 12.974011,9.551877 
	C17.931015,7.834612 21.115137,10.445570 23.996813,13.882800 
	C24.809057,14.851639 25.546732,15.882997 26.963953,17.253716 
	C30.032377,17.746431 32.476772,17.715336 34.872059,18.043131 
	C36.934975,18.325439 38.941902,19.016827 40.520016,19.612076 
	C35.811817,19.696804 31.557192,19.696804 27.172939,19.696804 
	C26.015087,26.093050 22.840843,30.228514 16.345346,31.198692 
	C15.808642,31.278854 15.423804,32.375786 14.640275,33.000271 
	C13.874639,33.000828 13.437133,33.001408 12.999626,33.001984 
z"/>
<path fill="#223B55" opacity="1.000000" stroke="none" 
	d="
M206.686523,43.639626 
	C201.875793,50.173996 200.700684,57.645817 202.947800,65.728630 
	C204.188446,70.191284 206.865158,73.125702 211.788162,72.890770 
	C216.496887,72.666077 218.806885,69.383011 219.801376,65.268997 
	C221.778641,57.089432 221.458084,49.391918 214.003479,43.326382 
	C223.192719,42.620781 230.450287,53.716316 226.554077,64.274216 
	C224.150085,70.788513 217.789856,75.108391 210.832001,75.054543 
	C203.860123,75.000603 198.290894,70.927315 195.886414,64.123512 
	C193.620682,57.712315 195.681030,49.637909 200.935272,45.686245 
	C202.379272,44.600231 204.507706,44.424252 206.686523,43.639626 
z"/>
<path fill="#223C56" opacity="1.000000" stroke="none" 
	d="
M365.332489,45.857651 
	C371.111359,51.209156 372.736511,57.802803 369.960968,64.636681 
	C367.342255,71.084320 361.449005,75.060204 354.524719,75.050819 
	C347.606750,75.041443 341.993988,71.399414 339.748322,64.726372 
	C337.410370,57.779045 338.583954,51.361942 344.848511,46.103935 
	C346.128693,46.896160 346.700531,47.714951 347.191528,48.918411 
	C347.032379,55.120533 346.475433,60.985031 347.040985,66.739204 
	C347.430298,70.700241 350.705933,72.867653 354.848663,72.926842 
	C359.095825,72.987534 362.220764,70.476105 362.693420,66.723442 
	C363.417358,60.975243 362.891357,55.069611 362.951050,48.864006 
	C363.781647,47.617355 364.557068,46.737503 365.332489,45.857651 
z"/>
<path fill="#55A5F8" opacity="1.000000" stroke="none" 
	d="
M78.569687,17.337482 
	C82.795502,10.480687 86.782539,8.060552 91.803223,9.377933 
	C96.550583,10.623595 99.615562,13.639020 100.450867,18.486229 
	C101.386833,23.917606 98.397263,27.507511 93.691490,30.686804 
	C92.414909,31.008512 91.679184,31.025671 90.961670,31.034649 
	C90.979889,31.026468 90.968765,31.057655 90.908363,30.684353 
	C87.517502,28.911285 84.187050,27.511522 80.879646,26.053658 
	C80.902702,25.995554 80.891579,26.119968 80.896301,25.784487 
	C80.480080,25.005217 80.059143,24.561426 79.468002,23.983967 
	C79.118652,23.596289 79.071175,23.319683 79.431877,22.971306 
	C79.467728,21.627640 79.227081,20.333143 78.986855,19.023689 
	C78.987282,19.008734 78.957382,19.010221 78.893661,18.584343 
	C78.743187,17.884802 78.656441,17.611143 78.569687,17.337482 
z"/>
<path fill="#54A4F8" opacity="1.000000" stroke="none" 
	d="
M21.076849,103.257607 
	C17.869181,103.452301 14.661513,103.647003 11.083076,103.291382 
	C10.132968,102.499580 9.553626,102.258095 8.974284,102.016617 
	C8.974284,102.016617 8.998882,101.997749 8.893438,101.781456 
	C8.513568,101.382523 8.239141,101.199883 7.964712,101.017242 
	C7.964711,101.017242 8.002651,101.003242 7.997117,100.663078 
	C7.338688,99.541809 6.685794,98.760712 6.032901,97.979607 
	C6.032902,97.979607 5.855100,97.723656 5.900666,97.092133 
	C5.953413,94.290848 5.960594,92.121086 5.967774,89.951324 
	C5.967774,89.951324 6.001750,89.995949 6.210879,89.872086 
	C6.552230,89.434517 6.684451,89.120811 6.816674,88.807106 
	C6.816675,88.807106 6.817508,88.926186 7.086917,88.790703 
	C7.550532,88.078293 7.744736,87.501366 7.938941,86.924438 
	C7.938942,86.924438 7.998568,86.982018 8.201546,86.877930 
	C8.590317,86.490158 8.776108,86.206467 8.961899,85.922775 
	C8.961898,85.922775 8.985525,85.999283 9.276211,85.968712 
	C10.000033,85.545555 10.433169,85.152969 10.866306,84.760384 
	C10.866306,84.760384 10.963523,84.897667 11.245255,84.877502 
	C11.992934,84.179871 12.458880,83.502411 12.924829,82.824951 
	C12.924829,82.824951 12.893577,82.405968 13.286741,82.203270 
	C14.127357,81.997925 14.574810,81.995277 15.264511,82.257385 
	C24.039600,84.789078 26.123468,87.175896 27.068306,96.095840 
	C26.721153,97.078102 26.408220,97.768150 26.095287,98.458199 
	C25.965279,98.587509 25.835274,98.716812 25.099285,98.978142 
	C23.978140,100.040298 23.462976,100.970428 22.947815,101.900566 
	C22.947815,101.900566 22.975712,101.979370 22.632721,102.005875 
	C21.885435,102.440788 21.481142,102.849197 21.076849,103.257607 
z"/>
<path fill="#223B55" opacity="1.000000" stroke="none" 
	d="
M190.872101,46.312416 
	C190.806976,50.438351 189.385941,52.709946 186.264038,52.157299 
	C184.825104,49.586956 183.774063,46.266476 182.839035,46.298832 
	C179.485886,46.414845 176.268494,48.000366 176.104279,52.080059 
	C175.890472,57.391659 175.698746,62.754715 176.239853,68.019333 
	C176.435303,69.920815 178.775925,71.601807 180.413345,73.744125 
	C175.652069,73.744125 170.326187,73.744125 165.000320,73.744125 
	C170.684464,72.699966 170.046967,68.626923 169.968628,64.790268 
	C169.883774,60.635582 169.743622,56.464668 170.008698,52.325241 
	C170.256592,48.453621 169.534790,45.668419 164.495422,45.810944 
	C164.556335,45.343891 164.617249,44.876839 164.678162,44.409790 
	C168.200409,43.423820 171.722656,42.437851 175.708145,41.322208 
	C175.914185,43.355434 176.058578,44.780251 176.217422,46.347748 
	C181.048172,45.125328 185.749817,36.714333 190.872101,46.312416 
z"/>
<path fill="#1F3954" opacity="1.000000" stroke="none" 
	d="
M246.184601,44.569031 
	C245.795334,55.764828 245.980148,66.582962 244.807602,77.251907 
	C244.048737,84.156563 239.005188,87.767380 231.929321,88.508400 
	C232.511215,87.502556 232.747787,86.456177 233.368500,86.120880 
	C238.657303,83.263924 239.701477,78.243233 239.894180,73.007812 
	C240.144577,66.204750 239.988220,59.386452 239.993347,52.574707 
	C239.997574,46.959557 239.988815,46.959549 234.737564,44.197540 
	C238.202621,43.370415 241.660065,42.504196 245.153809,41.824585 
	C245.340454,41.788280 245.832916,43.324120 246.184601,44.569031 
z"/>
<path fill="#50A4FC" opacity="1.000000" stroke="none" 
	d="
M94.966949,102.497505 
	C92.582802,102.994041 90.198662,103.490578 87.191971,103.717545 
	C85.719582,103.293465 84.869751,103.138954 84.019913,102.984436 
	C84.019913,102.984436 84.001488,103.001434 83.888870,102.766953 
	C83.489120,102.371124 83.201988,102.209770 82.914856,102.048424 
	C82.914856,102.048424 82.986679,102.010818 82.880081,101.803154 
	C82.488503,101.410271 82.203537,101.225052 81.918571,101.039833 
	C81.918571,101.039833 81.996498,101.014160 81.965546,100.723656 
	C81.513573,100.050186 81.092545,99.667221 80.671516,99.284248 
	C80.671516,99.284248 80.739754,99.100128 80.685287,98.883392 
	C80.066139,98.461769 79.501465,98.256889 78.936783,98.052017 
	C78.936783,98.052017 79.004387,98.010696 78.964912,97.601105 
	C78.824989,96.613976 78.724541,96.036423 78.657654,95.335678 
	C78.691216,95.212471 78.862267,95.019501 79.178711,94.812149 
	C79.962303,92.369080 80.429451,90.133354 80.885391,87.935074 
	C80.874191,87.972527 80.869431,87.892540 81.224915,87.900162 
	C82.369629,86.913460 83.158867,85.919136 83.956810,84.932816 
	C83.965515,84.940811 83.932671,84.921616 84.374878,84.949570 
	C85.641975,84.980438 86.468834,85.021858 87.291443,84.979942 
	C92.175217,84.731110 95.959320,86.542313 98.298508,90.937408 
	C100.421410,94.926140 97.921906,97.790138 95.812119,100.744370 
	C95.440582,101.264610 95.244217,101.909950 94.966949,102.497505 
z"/>
<path fill="#203A54" opacity="1.000000" stroke="none" 
	d="
M259.814392,59.979736 
	C259.814270,57.497669 259.658234,55.483234 259.846375,53.501480 
	C260.241791,49.335815 259.759247,45.838764 254.062012,45.497772 
	C254.183517,45.088268 254.305008,44.678768 254.426498,44.269264 
	C258.053375,43.323452 261.680237,42.377640 266.004242,41.250034 
	C266.004242,49.597095 265.962402,57.215736 266.022430,64.833580 
	C266.051056,68.465996 264.439514,73.185913 272.463531,72.132126 
	C271.943939,72.708870 271.424316,73.285622 270.904724,73.862366 
	C265.481476,73.862366 260.058197,73.862366 254.634918,73.862366 
	C262.657990,71.566368 259.134064,65.162369 259.814392,59.979736 
z"/>
<path fill="#67A7EC" opacity="1.000000" stroke="none" 
	d="
M95.305237,102.468552 
	C95.244217,101.909950 95.440582,101.264610 95.812119,100.744370 
	C97.921906,97.790138 100.421410,94.926140 98.298508,90.937408 
	C95.959320,86.542313 92.175217,84.731110 87.291443,84.979942 
	C86.468834,85.021858 85.641975,84.980438 84.602448,84.647072 
	C86.537285,83.635223 88.686768,82.953819 90.943451,82.238434 
	C90.943451,65.130219 90.943451,48.086525 90.943451,31.042831 
	C91.679184,31.025671 92.414909,31.008512 93.518188,30.982826 
	C93.935768,47.053299 94.020576,63.132336 94.002586,79.211258 
	C93.999481,81.982681 94.486580,83.946960 96.967560,85.927216 
	C102.701294,90.503746 101.803535,98.842697 95.305237,102.468552 
z"/>
<path fill="#72ADEC" opacity="1.000000" stroke="none" 
	d="
M40.973587,19.527346 
	C38.941902,19.016827 36.934975,18.325439 34.872059,18.043131 
	C32.476772,17.715336 30.032377,17.746431 27.306458,17.343349 
	C42.855938,17.018023 58.708279,16.950974 74.560509,16.971466 
	C75.569252,16.972773 76.577103,17.653799 77.873512,18.476133 
	C78.426895,18.959175 78.692139,18.984699 78.957382,19.010221 
	C78.957382,19.010221 78.987282,19.008734 78.961853,19.334625 
	C78.904434,19.866287 78.872452,20.072060 78.394852,20.159637 
	C65.624016,19.870079 53.298801,19.698711 40.973587,19.527346 
z"/>
<path fill="#67A7EC" opacity="1.000000" stroke="none" 
	d="
M78.624084,95.458878 
	C78.724541,96.036423 78.824989,96.613976 78.939972,97.632011 
	C61.603596,98.226700 44.252678,98.380890 26.498524,98.496643 
	C26.408220,97.768150 26.721153,97.078102 27.528618,96.105377 
	C44.890133,95.701431 61.757111,95.580154 78.624084,95.458878 
z"/>
<path fill="#60A4EB" opacity="1.000000" stroke="none" 
	d="
M15.022262,81.992630 
	C14.574810,81.995277 14.127357,81.997925 13.344351,82.001244 
	C12.961333,65.978363 12.913872,49.954807 12.933018,33.466618 
	C13.437133,33.001408 13.874639,33.000828 14.709026,33.464760 
	C15.078025,49.950386 15.050143,65.971504 15.022262,81.992630 
z"/>
<path fill="#223B54" opacity="1.000000" stroke="none" 
	d="
M246.996246,28.302345 
	C247.163147,31.967276 245.205231,33.405594 242.367264,32.959938 
	C240.886032,32.727333 238.818359,31.268270 238.510529,30.000223 
	C238.234619,28.863792 239.701187,26.816235 240.939056,25.901363 
	C243.567642,23.958643 245.573181,25.325193 246.996246,28.302345 
z"/>
<path fill="#273E57" opacity="1.000000" stroke="none" 
	d="
M258.329834,27.590441 
	C258.893707,26.918512 259.246887,26.296295 259.608734,26.291235 
	C261.680420,26.262251 263.876801,26.016855 265.758118,26.652334 
	C266.384033,26.863752 266.900726,30.113705 266.236572,30.824476 
	C265.099335,32.041477 262.497314,33.346016 261.412109,32.805031 
	C259.884521,32.043530 259.179749,29.631458 258.329834,27.590441 
z"/>
<path fill="#273B51" opacity="1.000000" stroke="none" 
	d="
M365.138306,45.545132 
	C364.557068,46.737503 363.781647,47.617355 362.653503,48.674416 
	C357.922150,42.466187 352.599213,42.353592 347.272400,48.533737 
	C346.700531,47.714951 346.128693,46.896160 345.165985,45.994537 
	C351.262268,40.616650 357.424774,40.409161 365.138306,45.545132 
z"/>
<path fill="#60A4EB" opacity="1.000000" stroke="none" 
	d="
M5.682406,90.218452 
	C5.960594,92.121086 5.953413,94.290848 5.903496,96.936325 
	C5.706185,95.103226 5.551611,92.794403 5.682406,90.218452 
z"/>
<path fill="#60A4EB" opacity="1.000000" stroke="none" 
	d="
M6.042797,98.299866 
	C6.685794,98.760712 7.338688,99.541809 7.982864,100.677872 
	C7.333662,100.228592 6.693178,99.424362 6.042797,98.299866 
z"/>
<path fill="#67A7EC" opacity="1.000000" stroke="none" 
	d="
M23.241951,101.789070 
	C23.462976,100.970428 23.978140,100.040298 24.851145,99.096786 
	C24.651354,99.948128 24.093721,100.812851 23.241951,101.789070 
z"/>
<path fill="#60A4EB" opacity="1.000000" stroke="none" 
	d="
M12.681845,82.992706 
	C12.458880,83.502411 11.992934,84.179871 11.175602,84.830353 
	C11.362432,84.255737 11.900647,83.708099 12.681845,82.992706 
z"/>
<path fill="#67A7EC" opacity="1.000000" stroke="none" 
	d="
M84.223633,103.252319 
	C84.869751,103.138954 85.719582,103.293465 86.779907,103.698898 
	C86.136055,103.806610 85.281700,103.663399 84.223633,103.252319 
z"/>
<path fill="#60A4EB" opacity="1.000000" stroke="none" 
	d="
M10.558451,84.769081 
	C10.433169,85.152969 10.000033,85.545555 9.247660,85.940643 
	C9.369145,85.554695 9.809870,85.166237 10.558451,84.769081 
z"/>
<path fill="#60A4EB" opacity="1.000000" stroke="none" 
	d="
M7.661178,87.054237 
	C7.744736,87.501366 7.550532,88.078293 7.048049,88.745598 
	C6.954319,88.285332 7.168867,87.734680 7.661178,87.054237 
z"/>
<path fill="#67A7EC" opacity="1.000000" stroke="none" 
	d="
M79.113388,98.275314 
	C79.501465,98.256889 80.066139,98.461769 80.682861,98.981537 
	C80.253273,99.030479 79.771637,98.764542 79.113388,98.275314 
z"/>
<path fill="#67A7EC" opacity="1.000000" stroke="none" 
	d="
M80.696228,99.577454 
	C81.092545,99.667221 81.513573,100.050186 81.938461,100.754471 
	C81.535202,100.674072 81.128075,100.272362 80.696228,99.577454 
z"/>
<path fill="#60A4EB" opacity="1.000000" stroke="none" 
	d="
M9.127209,102.281052 
	C9.553626,102.258095 10.132968,102.499580 10.808630,103.057724 
	C10.363346,103.098091 9.821740,102.821793 9.127209,102.281052 
z"/>
<path fill="#67A7EC" opacity="1.000000" stroke="none" 
	d="
M21.363529,103.179207 
	C21.481142,102.849197 21.885435,102.440788 22.594048,101.990021 
	C22.482315,102.332039 22.066263,102.716423 21.363529,103.179207 
z"/>
<path fill="#67A7EC" opacity="1.000000" stroke="none" 
	d="
M78.893661,18.584343 
	C78.692139,18.984699 78.426895,18.959175 77.763237,18.877239 
	C77.542732,18.402266 77.720634,17.983702 78.234116,17.451311 
	C78.656441,17.611143 78.743187,17.884802 78.893661,18.584343 
z"/>
<path fill="#67A7EC" opacity="1.000000" stroke="none" 
	d="
M83.002609,102.296661 
	C83.201988,102.209770 83.489120,102.371124 83.892914,102.755783 
	C83.703171,102.834358 83.396774,102.689629 83.002609,102.296661 
z"/>
<path fill="#60A4EB" opacity="1.000000" stroke="none" 
	d="
M8.035042,101.271088 
	C8.239141,101.199883 8.513568,101.382523 8.888954,101.796074 
	C8.695067,101.859634 8.400220,101.692284 8.035042,101.271088 
z"/>
<path fill="#60A4EB" opacity="1.000000" stroke="none" 
	d="
M8.710413,86.004646 
	C8.776108,86.206467 8.590317,86.490158 8.161534,86.867142 
	C8.098672,86.669121 8.278799,86.377823 8.710413,86.004646 
z"/>
<path fill="#60A4EB" opacity="1.000000" stroke="none" 
	d="
M6.557939,88.890335 
	C6.684451,89.120811 6.552230,89.434517 6.183636,89.865463 
	C6.064577,89.646317 6.181891,89.309937 6.557939,88.890335 
z"/>
<path fill="#67A7EC" opacity="1.000000" stroke="none" 
	d="
M82.000542,101.290710 
	C82.203537,101.225052 82.488503,101.410271 82.864044,101.840378 
	C82.663910,101.904045 82.373207,101.722824 82.000542,101.290710 
z"/>
<path fill="#FAFBFC" opacity="1.000000" stroke="none" 
	d="
M136.437744,56.924088 
	C136.440948,56.660114 136.912994,56.319862 137.592163,56.251118 
	C137.501709,56.631016 137.204163,56.739407 136.437744,56.924088 
z"/>
<path fill="#FEFEFE" opacity="1.000000" stroke="none" 
	d="
M136.215485,52.996578 
	C136.099106,47.412636 135.817429,41.823509 135.992447,36.248714 
	C136.031998,34.988602 137.398178,33.184639 138.604507,32.652035 
	C142.918198,30.747461 150.297729,34.578072 152.156921,38.924889 
	C154.344421,44.039288 151.018524,52.425034 145.459045,53.161514 
	C143.062912,53.478931 140.832504,55.047375 138.192841,55.509186 
	C137.311066,54.312782 136.763275,53.654678 136.215485,52.996578 
z"/>
<path fill="#FAFBFC" opacity="1.000000" stroke="none" 
	d="
M136.227234,53.323189 
	C136.763275,53.654678 137.311066,54.312782 137.744858,55.334343 
	C137.166901,55.015133 136.702942,54.332466 136.227234,53.323189 
z"/>
<path fill="#FCFEFF" opacity="1.000000" stroke="none" 
	d="
M15.264511,82.257378 
	C15.050143,65.971504 15.078025,49.950386 15.037155,33.464783 
	C15.423804,32.375786 15.808642,31.278854 16.345346,31.198692 
	C22.840843,30.228514 26.015087,26.093050 27.172939,19.696804 
	C31.557192,19.696804 35.811817,19.696804 40.520016,19.612076 
	C53.298801,19.698711 65.624016,19.870079 78.396866,20.505184 
	C78.948120,21.652775 79.051750,22.336626 79.155373,23.020477 
	C79.071175,23.319683 79.118652,23.596289 79.549911,24.283943 
	C80.165207,25.185049 80.528397,25.652510 80.891579,26.119968 
	C80.891579,26.119968 80.902702,25.995554 80.976471,26.387054 
	C84.356415,28.204922 87.662590,29.631289 90.968765,31.057655 
	C90.968765,31.057655 90.979889,31.026468 90.961670,31.034649 
	C90.943451,48.086525 90.943451,65.130219 90.943451,82.238434 
	C88.686768,82.953819 86.537285,83.635223 84.160233,84.619118 
	C83.932671,84.921616 83.965515,84.940811 83.636124,84.990295 
	C82.494308,85.990707 81.681870,86.941628 80.869431,87.892540 
	C80.869431,87.892540 80.874191,87.972527 80.561661,88.126534 
	C79.786842,90.526863 79.324554,92.773178 78.862267,95.019501 
	C78.862267,95.019501 78.691216,95.212471 78.657654,95.335678 
	C61.757111,95.580154 44.890133,95.701431 27.562840,95.813171 
	C26.123468,87.175896 24.039600,84.789078 15.264511,82.257378 
M68.095062,70.987022 
	C68.095062,70.987022 68.266739,71.254898 68.760612,71.116455 
	C68.925087,70.829903 69.089561,70.543350 69.030899,70.255806 
	C69.030899,70.255806 69.250214,70.297134 69.815041,70.197990 
	C70.188026,69.787880 70.561020,69.377762 71.511688,68.691856 
	C72.662224,67.442513 73.812767,66.193169 75.547600,64.688881 
	C76.462128,63.582092 77.376656,62.475307 78.285416,61.314346 
	C78.285416,61.314346 78.277359,61.260468 78.775246,61.133976 
	C78.935814,60.846081 79.096382,60.558186 79.115532,59.989967 
	C79.115532,59.989967 79.280312,60.257847 79.777359,60.132145 
	C79.936897,59.844509 80.096428,59.556877 80.315971,59.289944 
	C80.315971,59.289944 80.379448,59.289211 80.971161,59.113983 
	C84.436012,56.667236 81.943619,55.417866 79.994514,54.002357 
	C79.994514,54.002357 79.930923,54.041733 79.740173,53.491188 
	C79.153519,53.004826 78.566864,52.518463 78.001060,51.999454 
	C78.001060,51.999454 77.965431,52.014606 77.797920,51.550179 
	C77.603081,51.256649 77.331100,51.086189 76.999748,50.998989 
	C76.999748,50.998989 76.964912,51.025326 76.697876,50.417923 
	C74.582275,48.520699 72.466667,46.623474 70.293884,44.727348 
	C70.293884,44.727348 70.239861,44.746101 70.123634,44.238529 
	C69.830818,44.079529 69.538002,43.920528 69.258263,43.968407 
	C69.258263,43.968407 69.279678,43.761955 69.206589,43.188782 
	C68.795387,42.807266 68.384193,42.425747 68.000000,42.000000 
	C68.000000,42.000000 67.955788,42.027065 67.720993,41.491982 
	C67.216309,41.237679 66.711632,40.983376 66.279854,40.778244 
	C66.279854,40.778244 66.271194,40.690731 66.123230,40.117805 
	C65.522346,39.655113 64.921463,39.192417 64.280281,38.746532 
	C64.280281,38.746532 64.239006,38.760765 64.121582,38.249046 
	C63.827042,38.086773 63.532501,37.924500 62.999935,37.958851 
	C62.999935,37.958851 63.237514,37.755165 63.117313,37.248856 
	C62.827145,37.086773 62.536972,36.924694 61.981136,36.882740 
	C61.981136,36.882740 62.240166,36.744350 62.125008,36.237335 
	C61.832878,36.078037 61.540745,35.918743 60.980446,35.911884 
	C60.980446,35.911884 61.241592,35.743763 61.125675,35.238102 
	C60.834862,35.076859 60.544048,34.915611 59.980434,34.903229 
	C59.980434,34.903229 60.247280,34.739002 60.126991,34.237766 
	C59.838615,34.075665 59.550243,33.913559 59.229408,33.708462 
	C59.229408,33.708462 59.229137,33.654594 59.017475,33.063896 
	C57.804359,31.945055 56.591240,30.826216 55.318676,29.710154 
	C55.318676,29.710154 55.259869,29.719246 55.131481,29.225204 
	C54.848507,29.061045 54.565533,28.896885 54.291489,28.670231 
	C54.291489,28.670231 54.291599,28.607103 54.099773,28.030491 
	C53.024456,28.314489 51.949139,28.598488 50.931576,28.987177 
	C50.931576,28.987177 50.920029,28.868172 50.407181,29.027014 
	C50.227104,29.324268 50.047024,29.621523 49.958946,29.956041 
	C49.958946,29.956041 49.916351,29.866383 49.403717,30.027260 
	C49.225079,30.325310 49.046440,30.623360 48.957874,30.957624 
	C48.957874,30.957624 48.918911,30.868706 48.409988,31.033951 
	C48.230396,31.330328 48.050804,31.626705 47.961262,31.958698 
	C47.961262,31.958698 47.920773,31.870728 47.410053,32.032318 
	C47.229969,32.328804 47.049885,32.625290 46.960300,32.957779 
	C46.960300,32.957779 46.919571,32.869305 46.408741,33.030880 
	C46.228592,33.327488 46.048447,33.624096 45.959015,33.956573 
	C45.959015,33.956573 45.918613,33.867783 45.408321,34.029018 
	C45.226425,34.324524 45.044529,34.620033 44.949902,34.954796 
	C44.949902,34.954796 44.920506,34.863731 44.386929,35.028690 
	C44.164234,35.320896 43.941540,35.613102 43.343109,36.057568 
	C43.108025,36.219643 42.961533,36.440487 42.406982,36.976460 
	C42.226154,37.291061 42.045322,37.605663 41.959545,37.945885 
	C41.959545,37.945885 41.909859,37.860901 41.397205,38.020626 
	C41.218132,38.318386 41.039055,38.616146 40.952332,38.953323 
	C40.952332,38.953323 40.912117,38.861313 40.403637,39.026474 
	C40.221447,39.321442 40.039261,39.616413 39.950932,39.948128 
	C39.950932,39.948128 39.909004,39.856464 39.400948,40.023643 
	C39.218960,40.318977 39.036972,40.614307 38.949509,40.946598 
	C38.949509,40.946598 38.907043,40.854416 38.399086,41.022198 
	C38.217579,41.317944 38.036068,41.613686 37.949192,41.946316 
	C37.949192,41.946316 37.906647,41.854092 37.399025,42.022587 
	C37.218998,42.319038 37.038975,42.615490 36.954491,42.948357 
	C36.954491,42.948357 36.908096,42.857243 36.398102,43.021465 
	C36.220222,43.319355 36.042339,43.617241 35.958805,43.955360 
	C35.958805,43.955360 35.912407,43.863892 35.400776,44.023312 
	C35.222431,44.320904 35.044086,44.618496 34.959629,44.956291 
	C34.959629,44.956291 34.913578,44.865128 34.401634,45.023846 
	C34.222881,45.321140 34.044128,45.618435 33.953381,45.959866 
	C33.953381,45.959866 33.919933,45.867268 33.386490,46.030472 
	C33.166714,46.323761 32.946934,46.617050 32.349316,47.064301 
	C32.111256,47.226784 31.965206,47.449581 31.418621,47.991283 
	C31.240875,48.305267 31.063128,48.619251 30.977285,48.960213 
	C30.977285,48.960213 30.923689,48.880829 30.410255,49.032715 
	C30.234081,49.330376 30.057909,49.628040 29.971491,49.971321 
	C29.971491,49.971321 29.924616,49.882217 29.412260,50.033512 
	C29.231424,50.328522 29.050589,50.623535 28.962004,50.958786 
	C28.962004,50.958786 28.917614,50.868462 28.403307,51.022575 
	C28.222164,51.319416 28.041019,51.616261 27.953762,51.950886 
	C27.953762,51.950886 27.910480,51.859402 27.400465,52.024467 
	C27.223009,52.322956 27.045551,52.621445 26.960194,52.956718 
	C26.960194,52.956718 26.916706,52.867584 26.406755,53.030411 
	C26.227127,53.327057 26.047499,53.623703 25.957693,53.958740 
	C25.957693,53.958740 25.919245,53.868938 25.410543,54.033501 
	C25.227736,54.328316 25.044926,54.623127 24.980759,54.926418 
	C24.980759,54.926418 24.877518,54.867352 24.265396,55.133781 
	C22.225037,56.815041 22.802818,58.084705 25.004833,59.016785 
	C25.004833,59.016785 24.880751,59.101883 25.088797,59.668884 
	C25.692696,60.191177 26.296597,60.713474 27.219763,61.806664 
	C34.729515,69.245941 42.239265,76.685226 50.086033,84.706932 
	C51.616348,86.484062 53.139797,88.395432 55.476585,84.714897 
	C55.975044,84.118111 56.473503,83.521332 57.433113,82.777802 
	C57.727772,82.589035 57.887611,82.320129 58.375477,81.751007 
	C58.570618,81.477013 58.765759,81.203011 59.525875,80.691284 
	C60.106804,79.896294 60.687737,79.101295 61.281185,78.224701 
	C61.281185,78.224701 61.210812,78.267868 61.788128,78.195587 
	C62.169704,77.784523 62.551285,77.373466 63.498547,76.701897 
	C64.321854,75.780884 65.145164,74.859871 66.501488,73.717491 
	C66.765877,73.226128 67.030266,72.734764 67.165977,71.977684 
	C67.165977,71.977684 67.266197,72.255043 67.760094,72.117203 
	C67.924744,71.830818 68.089386,71.544434 68.095062,70.987022 
z"/>
<path fill="#FBFCFC" opacity="1.000000" stroke="none" 
	d="
M347.191528,48.918407 
	C352.599213,42.353592 357.922150,42.466187 362.598328,49.041210 
	C362.891357,55.069611 363.417358,60.975243 362.693420,66.723442 
	C362.220764,70.476105 359.095825,72.987534 354.848663,72.926842 
	C350.705933,72.867653 347.430298,70.700241 347.040985,66.739204 
	C346.475433,60.985031 347.032379,55.120533 347.191528,48.918407 
z"/>
<path fill="#67A7EC" opacity="1.000000" stroke="none" 
	d="
M90.908363,30.684353 
	C87.662590,29.631289 84.356415,28.204922 80.953415,26.445156 
	C84.187050,27.511522 87.517502,28.911285 90.908363,30.684353 
z"/>
<path fill="#67A7EC" opacity="1.000000" stroke="none" 
	d="
M79.431877,22.971306 
	C79.051750,22.336626 78.948120,21.652775 78.842476,20.623377 
	C78.872452,20.072060 78.904434,19.866287 78.961426,19.349583 
	C79.227081,20.333143 79.467728,21.627640 79.431877,22.971306 
z"/>
<path fill="#67A7EC" opacity="1.000000" stroke="none" 
	d="
M80.896301,25.784487 
	C80.528397,25.652510 80.165207,25.185049 79.720116,24.417614 
	C80.059143,24.561426 80.480080,25.005217 80.896301,25.784487 
z"/>
<path fill="#67A7EC" opacity="1.000000" stroke="none" 
	d="
M79.178711,94.812149 
	C79.324554,92.773178 79.786842,90.526863 80.572861,88.089081 
	C80.429451,90.133354 79.962303,92.369080 79.178711,94.812149 
z"/>
<path fill="#67A7EC" opacity="1.000000" stroke="none" 
	d="
M81.224915,87.900162 
	C81.681870,86.941628 82.494308,85.990707 83.627426,84.982300 
	C83.158867,85.919136 82.369629,86.913460 81.224915,87.900162 
z"/>
<path fill="#51A4FB" opacity="1.000000" stroke="none" 
	d="
M65.968468,73.938858 
	C65.145164,74.859871 64.321854,75.780884 62.913387,76.866974 
	C61.955753,77.443985 61.583282,77.855927 61.210812,78.267868 
	C61.210812,78.267868 61.281185,78.224701 60.912720,78.200302 
	C60.016472,79.093597 59.488682,80.011299 58.960899,80.929008 
	C58.765759,81.203011 58.570618,81.477013 57.938034,81.965767 
	C57.243614,82.371147 57.067406,82.619156 56.971962,82.924553 
	C56.473503,83.521332 55.975044,84.118111 54.858852,84.688675 
	C52.743752,84.483131 51.246384,84.303818 49.749016,84.124504 
	C42.239265,76.685226 34.729515,69.245941 27.056133,61.168747 
	C26.221918,60.054512 25.551334,59.578197 24.880753,59.101883 
	C24.880751,59.101883 25.004833,59.016785 24.986500,58.642311 
	C24.937948,57.134338 24.907734,56.000847 24.877518,54.867352 
	C24.877518,54.867352 24.980759,54.926418 25.176491,54.839664 
	C25.554565,54.458252 25.736904,54.163593 25.919243,53.868938 
	C25.919245,53.868938 25.957693,53.958740 26.167774,53.857239 
	C26.557472,53.459682 26.737089,53.163635 26.916706,52.867584 
	C26.916706,52.867584 26.960194,52.956718 27.168633,52.854103 
	C27.554876,52.454124 27.732677,52.156761 27.910480,51.859402 
	C27.910480,51.859402 27.953762,51.950886 28.162609,51.851624 
	C28.553507,51.457726 28.735559,51.163094 28.917614,50.868462 
	C28.917614,50.868462 28.962004,50.958786 29.170305,50.859253 
	C29.560610,50.467220 29.742613,50.174721 29.924618,49.882217 
	C29.924616,49.882217 29.971491,49.971321 30.179329,49.866341 
	C30.566006,49.467850 30.744848,49.174339 30.923689,48.880829 
	C30.923689,48.880829 30.977285,48.960213 31.195118,48.839996 
	C31.579025,48.390747 31.745096,48.061718 31.911169,47.732689 
	C31.965206,47.449581 32.111256,47.226784 32.817028,46.919918 
	C33.496471,46.472778 33.708202,46.170025 33.919933,45.867268 
	C33.919933,45.867268 33.953381,45.959866 34.164455,45.856293 
	C34.554878,45.456860 34.734230,45.160992 34.913578,44.865128 
	C34.913578,44.865128 34.959629,44.956291 35.167755,44.854454 
	C35.554726,44.456375 35.733566,44.160133 35.912407,43.863892 
	C35.912407,43.863892 35.958805,43.955360 36.167282,43.853191 
	C36.553207,43.453098 36.730652,43.155170 36.908096,42.857243 
	C36.908096,42.857243 36.954491,42.948357 37.162910,42.848213 
	C37.549770,42.450073 37.728210,42.152084 37.906647,41.854092 
	C37.906647,41.854092 37.949192,41.946316 38.158997,41.847294 
	C38.548214,41.450321 38.727631,41.152367 38.907043,40.854416 
	C38.907043,40.854416 38.949509,40.946598 39.159294,40.847748 
	C39.549057,40.451416 39.729031,40.153942 39.909004,39.856464 
	C39.909004,39.856464 39.950932,39.948128 40.160580,39.849358 
	C40.550858,39.454163 40.731487,39.157738 40.912117,38.861313 
	C40.912117,38.861313 40.952332,38.953323 41.162369,38.852699 
	C41.551559,38.455021 41.730709,38.157959 41.909859,37.860901 
	C41.909859,37.860901 41.959545,37.945885 42.179314,37.829094 
	C42.567272,37.381569 42.735455,37.050831 42.903637,36.720097 
	C42.961533,36.440487 43.108025,36.219643 43.810844,35.914459 
	C44.492558,35.468811 44.706532,35.166271 44.920506,34.863731 
	C44.920506,34.863731 44.949902,34.954796 45.162384,34.854794 
	C45.556118,34.459122 45.737366,34.163452 45.918613,33.867783 
	C45.918613,33.867783 45.959015,33.956573 46.168613,33.856346 
	C46.558662,33.460514 46.739117,33.164909 46.919571,32.869305 
	C46.919571,32.869305 46.960300,32.957779 47.169693,32.857208 
	C47.559647,32.461334 47.740208,32.166031 47.920773,31.870728 
	C47.920773,31.870728 47.961262,31.958698 48.170616,31.857533 
	C48.559616,31.460482 48.739262,31.164593 48.918911,30.868706 
	C48.918911,30.868706 48.957874,30.957624 49.167442,30.856108 
	C49.556793,30.458521 49.736572,30.162451 49.916351,29.866383 
	C49.916351,29.866383 49.958946,29.956041 50.167778,29.854956 
	C50.557751,29.458637 50.738892,29.163404 50.920029,28.868172 
	C50.920029,28.868172 50.931576,28.987177 51.332581,28.972050 
	C52.586258,28.840315 53.438927,28.723711 54.291599,28.607105 
	C54.291599,28.607103 54.291489,28.670231 54.305500,28.978970 
	C54.632965,29.431555 54.946415,29.575401 55.259869,29.719246 
	C55.259869,29.719246 55.318676,29.710154 55.228729,30.128729 
	C54.616360,34.065582 56.572056,34.321732 59.229137,33.654594 
	C59.229137,33.654594 59.229408,33.708462 59.270164,34.005497 
	C59.623035,34.448025 59.935158,34.593513 60.247280,34.739002 
	C60.247280,34.739002 59.980434,34.903229 60.143330,35.104046 
	C60.618015,35.451164 60.929802,35.597466 61.241592,35.743763 
	C61.241592,35.743763 60.980446,35.911884 61.142349,36.110313 
	C61.616222,36.453945 61.928192,36.599148 62.240166,36.744350 
	C62.240166,36.744350 61.981136,36.882740 62.142418,37.096992 
	C62.614971,37.459221 62.926243,37.607193 63.237514,37.755165 
	C63.237514,37.755165 62.999935,37.958851 63.150948,38.135509 
	C63.614307,38.461700 63.926655,38.611233 64.239006,38.760765 
	C64.239006,38.760765 64.280281,38.746532 64.231354,39.099327 
	C64.878677,39.864994 65.574936,40.277863 66.271194,40.690731 
	C66.271194,40.690731 66.279854,40.778244 66.307571,41.056648 
	C66.875458,41.565720 67.415627,41.796391 67.955788,42.027065 
	C67.955788,42.027065 68.000000,42.000000 68.015274,42.328018 
	C68.446922,43.024673 68.863304,43.393314 69.279678,43.761955 
	C69.279678,43.761955 69.258263,43.968407 69.280533,44.139641 
	C69.615150,44.455948 69.927505,44.601025 70.239861,44.746101 
	C70.239861,44.746101 70.293884,44.727348 70.230453,45.091499 
	C72.432983,47.312214 74.698944,49.168770 76.964912,51.025326 
	C76.964912,51.025326 76.999748,50.998989 77.092690,51.237175 
	C77.380905,51.748596 77.640839,51.928345 77.965431,52.014606 
	C77.965431,52.014606 78.001060,51.999454 78.030014,52.330696 
	C78.682961,53.121872 79.306938,53.581802 79.930923,54.041733 
	C79.930923,54.041733 79.994514,54.002357 79.984787,54.467041 
	C80.109856,56.384216 80.244652,57.836716 80.379448,59.289211 
	C80.379448,59.289211 80.315971,59.289944 80.008438,59.301010 
	C79.560715,59.627335 79.420509,59.942593 79.280312,60.257847 
	C79.280312,60.257847 79.115532,59.989967 78.908524,60.151817 
	C78.560135,60.629269 78.418747,60.944870 78.277359,61.260468 
	C78.277359,61.260468 78.285416,61.314346 77.915848,61.248459 
	C76.685295,62.436325 75.824295,63.690075 74.963303,64.943825 
	C73.812767,66.193169 72.662224,67.442513 70.920181,68.865570 
	C69.969193,69.458572 69.609703,69.877853 69.250214,70.297134 
	C69.250214,70.297134 69.030899,70.255806 68.866547,70.284805 
	C68.557045,70.627510 68.411896,70.941200 68.266739,71.254898 
	C68.266739,71.254898 68.095062,70.987022 67.898590,71.150696 
	C67.556816,71.627922 67.411507,71.941483 67.266197,72.255043 
	C67.266197,72.255043 67.165977,71.977684 66.926743,72.161247 
	C66.447823,72.876160 66.208145,73.407509 65.968468,73.938858 
z"/>
<path fill="#68A7EA" opacity="1.000000" stroke="none" 
	d="
M76.831390,50.721626 
	C74.698944,49.168770 72.432983,47.312214 70.259048,45.090950 
	C72.466667,46.623474 74.582275,48.520699 76.831390,50.721626 
z"/>
<path fill="#68A7EA" opacity="1.000000" stroke="none" 
	d="
M59.123306,33.359245 
	C56.572056,34.321732 54.616360,34.065582 55.258453,30.127340 
	C56.591240,30.826216 57.804359,31.945055 59.123306,33.359245 
z"/>
<path fill="#68A7EA" opacity="1.000000" stroke="none" 
	d="
M80.675308,59.201599 
	C80.244652,57.836716 80.109856,56.384216 79.965889,54.499310 
	C81.943619,55.417866 84.436012,56.667236 80.675308,59.201599 
z"/>
<path fill="#68A7EA" opacity="1.000000" stroke="none" 
	d="
M49.917526,84.415718 
	C51.246384,84.303818 52.743752,84.483131 54.589058,84.808754 
	C53.139797,88.395432 51.616348,86.484062 49.917526,84.415718 
z"/>
<path fill="#68A7EA" opacity="1.000000" stroke="none" 
	d="
M75.255447,64.816353 
	C75.824295,63.690075 76.685295,62.436325 77.918732,61.275547 
	C77.376656,62.475307 76.462128,63.582092 75.255447,64.816353 
z"/>
<path fill="#68A7EA" opacity="1.000000" stroke="none" 
	d="
M24.571457,55.000565 
	C24.907734,56.000847 24.937948,57.134338 24.929863,58.692337 
	C22.802818,58.084705 22.225037,56.815041 24.571457,55.000565 
z"/>
<path fill="#68A7EA" opacity="1.000000" stroke="none" 
	d="
M59.243385,80.810150 
	C59.488682,80.011299 60.016472,79.093597 60.906464,78.241104 
	C60.687737,79.101295 60.106804,79.896294 59.243385,80.810150 
z"/>
<path fill="#68A7EA" opacity="1.000000" stroke="none" 
	d="
M54.195686,28.318798 
	C53.438927,28.723711 52.586258,28.840315 51.303703,28.919704 
	C51.949139,28.598488 53.024456,28.314489 54.195686,28.318798 
z"/>
<path fill="#68A7EA" opacity="1.000000" stroke="none" 
	d="
M66.197212,40.404266 
	C65.574936,40.277863 64.878677,39.864994 64.251495,39.090923 
	C64.921463,39.192417 65.522346,39.655113 66.197212,40.404266 
z"/>
<path fill="#68A7EA" opacity="1.000000" stroke="none" 
	d="
M79.835548,53.766460 
	C79.306938,53.581802 78.682961,53.121872 78.019592,52.347023 
	C78.566864,52.518463 79.153519,53.004826 79.835548,53.766460 
z"/>
<path fill="#68A7EA" opacity="1.000000" stroke="none" 
	d="
M24.984776,59.385384 
	C25.551334,59.578197 26.221918,60.054512 26.896500,60.883297 
	C26.296597,60.713474 25.692696,60.191177 24.984776,59.385384 
z"/>
<path fill="#68A7EA" opacity="1.000000" stroke="none" 
	d="
M69.243134,43.475368 
	C68.863304,43.393314 68.446922,43.024673 68.001770,42.350128 
	C68.384193,42.425747 68.795387,42.807266 69.243134,43.475368 
z"/>
<path fill="#68A7EA" opacity="1.000000" stroke="none" 
	d="
M66.234978,73.828171 
	C66.208145,73.407509 66.447823,72.876160 66.991074,72.294106 
	C67.030266,72.734764 66.765877,73.226128 66.234978,73.828171 
z"/>
<path fill="#68A7EA" opacity="1.000000" stroke="none" 
	d="
M61.499470,78.231728 
	C61.583282,77.855927 61.955753,77.443985 62.630547,76.997223 
	C62.551285,77.373466 62.169704,77.784523 61.499470,78.231728 
z"/>
<path fill="#68A7EA" opacity="1.000000" stroke="none" 
	d="
M69.532623,70.247559 
	C69.609703,69.877853 69.969193,69.458572 70.631340,69.003464 
	C70.561020,69.377762 70.188026,69.787880 69.532623,70.247559 
z"/>
<path fill="#68A7EA" opacity="1.000000" stroke="none" 
	d="
M67.838394,41.759521 
	C67.415627,41.796391 66.875458,41.565720 66.271118,41.032059 
	C66.711632,40.983376 67.216309,41.237679 67.838394,41.759521 
z"/>
<path fill="#68A7EA" opacity="1.000000" stroke="none" 
	d="
M47.665413,31.951523 
	C47.740208,32.166031 47.559647,32.461334 47.124439,32.839211 
	C47.049885,32.625290 47.229969,32.328804 47.665413,31.951523 
z"/>
<path fill="#68A7EA" opacity="1.000000" stroke="none" 
	d="
M36.653099,42.939354 
	C36.730652,43.155170 36.553207,43.453098 36.120110,43.833076 
	C36.042339,43.617241 36.220222,43.319355 36.653099,42.939354 
z"/>
<path fill="#68A7EA" opacity="1.000000" stroke="none" 
	d="
M61.183632,35.490932 
	C60.929802,35.597466 60.618015,35.451164 60.279732,35.029617 
	C60.544048,34.915611 60.834862,35.076859 61.183632,35.490932 
z"/>
<path fill="#68A7EA" opacity="1.000000" stroke="none" 
	d="
M44.653717,34.946213 
	C44.706532,35.166271 44.492558,35.468811 43.998711,35.838329 
	C43.941540,35.613102 44.164234,35.320896 44.653717,34.946213 
z"/>
<path fill="#68A7EA" opacity="1.000000" stroke="none" 
	d="
M57.202538,82.851181 
	C57.067406,82.619156 57.243614,82.371147 57.706612,82.075806 
	C57.887611,82.320129 57.727772,82.589035 57.202538,82.851181 
z"/>
<path fill="#68A7EA" opacity="1.000000" stroke="none" 
	d="
M60.187134,34.488384 
	C59.935158,34.593513 59.623035,34.448025 59.286392,34.026993 
	C59.550243,33.913559 59.838615,34.075665 60.187134,34.488384 
z"/>
<path fill="#68A7EA" opacity="1.000000" stroke="none" 
	d="
M45.663467,33.948402 
	C45.737366,34.163452 45.556118,34.459122 45.118752,34.835167 
	C45.044529,34.620033 45.226425,34.324524 45.663467,33.948402 
z"/>
<path fill="#68A7EA" opacity="1.000000" stroke="none" 
	d="
M46.664154,32.950092 
	C46.739117,33.164909 46.558662,33.460514 46.123253,33.838413 
	C46.048447,33.624096 46.228592,33.327488 46.664154,32.950092 
z"/>
<path fill="#68A7EA" opacity="1.000000" stroke="none" 
	d="
M48.664452,30.951328 
	C48.739262,31.164593 48.559616,31.460482 48.125587,31.839725 
	C48.050804,31.626705 48.230396,31.330328 48.664452,30.951328 
z"/>
<path fill="#68A7EA" opacity="1.000000" stroke="none" 
	d="
M49.660034,29.946821 
	C49.736572,30.162451 49.556793,30.458521 49.122406,30.838001 
	C49.046440,30.623360 49.225079,30.325310 49.660034,29.946821 
z"/>
<path fill="#68A7EA" opacity="1.000000" stroke="none" 
	d="
M55.195675,29.472225 
	C54.946415,29.575401 54.632965,29.431555 54.301033,29.010218 
	C54.565533,28.896885 54.848507,29.061045 55.195675,29.472225 
z"/>
<path fill="#68A7EA" opacity="1.000000" stroke="none" 
	d="
M50.663605,28.947594 
	C50.738892,29.163404 50.557751,29.458637 50.121777,29.836323 
	C50.047024,29.621523 50.227104,29.324268 50.663605,28.947594 
z"/>
<path fill="#68A7EA" opacity="1.000000" stroke="none" 
	d="
M39.654976,39.940056 
	C39.729031,40.153942 39.549057,40.451416 39.112034,40.829269 
	C39.036972,40.614307 39.218960,40.318977 39.654976,39.940056 
z"/>
<path fill="#68A7EA" opacity="1.000000" stroke="none" 
	d="
M35.656593,43.943604 
	C35.733566,44.160133 35.554726,44.456375 35.120815,44.834351 
	C35.044086,44.618496 35.222431,44.320904 35.656593,43.943604 
z"/>
<path fill="#68A7EA" opacity="1.000000" stroke="none" 
	d="
M70.181747,44.492317 
	C69.927505,44.601025 69.615150,44.455948 69.273987,44.036201 
	C69.538002,43.920528 69.830818,44.079529 70.181747,44.492317 
z"/>
<path fill="#68A7EA" opacity="1.000000" stroke="none" 
	d="
M37.652836,41.938339 
	C37.728210,42.152084 37.549770,42.450073 37.115143,42.830002 
	C37.038975,42.615490 37.218998,42.319038 37.652836,41.938339 
z"/>
<path fill="#68A7EA" opacity="1.000000" stroke="none" 
	d="
M34.657608,44.944489 
	C34.734230,45.160992 34.554878,45.456860 34.120453,45.834229 
	C34.044128,45.618435 34.222881,45.321140 34.657608,44.944489 
z"/>
<path fill="#68A7EA" opacity="1.000000" stroke="none" 
	d="
M33.653214,45.948868 
	C33.708202,46.170025 33.496471,46.472778 33.005951,46.842937 
	C32.946934,46.617050 33.166714,46.323761 33.653214,45.948868 
z"/>
<path fill="#68A7EA" opacity="1.000000" stroke="none" 
	d="
M38.653065,40.938309 
	C38.727631,41.152367 38.548214,41.450321 38.111679,41.828850 
	C38.036068,41.613686 38.217579,41.317944 38.653065,40.938309 
z"/>
<path fill="#68A7EA" opacity="1.000000" stroke="none" 
	d="
M31.664894,47.861984 
	C31.745096,48.061718 31.579025,48.390747 31.149166,48.826508 
	C31.063128,48.619251 31.240875,48.305267 31.664894,47.861984 
z"/>
<path fill="#68A7EA" opacity="1.000000" stroke="none" 
	d="
M30.666973,48.956772 
	C30.744848,49.174339 30.566006,49.467850 30.134449,49.843533 
	C30.057909,49.628040 30.234081,49.330376 30.666973,48.956772 
z"/>
<path fill="#68A7EA" opacity="1.000000" stroke="none" 
	d="
M29.668438,49.957863 
	C29.742613,50.174721 29.560610,50.467220 29.124180,50.839134 
	C29.050589,50.623535 29.231424,50.328522 29.668438,49.957863 
z"/>
<path fill="#68A7EA" opacity="1.000000" stroke="none" 
	d="
M28.660460,50.945518 
	C28.735559,51.163094 28.553507,51.457726 28.115665,51.832733 
	C28.041019,51.616261 28.222164,51.319416 28.660460,50.945518 
z"/>
<path fill="#68A7EA" opacity="1.000000" stroke="none" 
	d="
M77.881676,51.782394 
	C77.640839,51.928345 77.380905,51.748596 77.083801,51.257080 
	C77.331100,51.086189 77.603081,51.256649 77.881676,51.782394 
z"/>
<path fill="#68A7EA" opacity="1.000000" stroke="none" 
	d="
M27.655472,51.941933 
	C27.732677,52.156761 27.554876,52.454124 27.122583,52.835709 
	C27.045551,52.621445 27.223009,52.322956 27.655472,51.941933 
z"/>
<path fill="#68A7EA" opacity="1.000000" stroke="none" 
	d="
M62.182587,36.490845 
	C61.928192,36.599148 61.616222,36.453945 61.276436,36.034096 
	C61.540745,35.918743 61.832878,36.078037 62.182587,36.490845 
z"/>
<path fill="#68A7EA" opacity="1.000000" stroke="none" 
	d="
M26.661732,52.948997 
	C26.737089,53.163635 26.557472,53.459682 26.122864,53.838043 
	C26.047499,53.623703 26.227127,53.327057 26.661732,52.948997 
z"/>
<path fill="#68A7EA" opacity="1.000000" stroke="none" 
	d="
M40.657875,38.943893 
	C40.731487,39.157738 40.550858,39.454163 40.113647,39.830986 
	C40.039261,39.616413 40.221447,39.321442 40.657875,38.943893 
z"/>
<path fill="#68A7EA" opacity="1.000000" stroke="none" 
	d="
M25.664894,53.951218 
	C25.736904,54.163593 25.554565,54.458252 25.117172,54.835426 
	C25.044926,54.623127 25.227736,54.328316 25.664894,53.951218 
z"/>
<path fill="#68A7EA" opacity="1.000000" stroke="none" 
	d="
M64.180298,38.504906 
	C63.926655,38.611233 63.614307,38.461700 63.269958,38.037197 
	C63.532501,37.924500 63.827042,38.086773 64.180298,38.504906 
z"/>
<path fill="#68A7EA" opacity="1.000000" stroke="none" 
	d="
M41.653534,37.940765 
	C41.730709,38.157959 41.551559,38.455021 41.116196,38.832993 
	C41.039055,38.616146 41.218132,38.318386 41.653534,37.940765 
z"/>
<path fill="#68A7EA" opacity="1.000000" stroke="none" 
	d="
M63.177414,37.502010 
	C62.926243,37.607193 62.614971,37.459221 62.275253,37.036926 
	C62.536972,36.924694 62.827145,37.086773 63.177414,37.502010 
z"/>
<path fill="#68A7EA" opacity="1.000000" stroke="none" 
	d="
M79.528839,60.194996 
	C79.420509,59.942593 79.560715,59.627335 79.978439,59.290661 
	C80.096428,59.556877 79.936897,59.844509 79.528839,60.194996 
z"/>
<path fill="#68A7EA" opacity="1.000000" stroke="none" 
	d="
M78.526306,61.197220 
	C78.418747,60.944870 78.560135,60.629269 78.979233,60.291977 
	C79.096382,60.558186 78.935814,60.846081 78.526306,61.197220 
z"/>
<path fill="#68A7EA" opacity="1.000000" stroke="none" 
	d="
M42.655312,36.848278 
	C42.735455,37.050831 42.567272,37.381569 42.131790,37.816284 
	C42.045322,37.605663 42.226154,37.291061 42.655312,36.848278 
z"/>
<path fill="#68A7EA" opacity="1.000000" stroke="none" 
	d="
M68.513672,71.185677 
	C68.411896,70.941200 68.557045,70.627510 68.978119,70.285309 
	C69.089561,70.543350 68.925087,70.829903 68.513672,71.185677 
z"/>
<path fill="#68A7EA" opacity="1.000000" stroke="none" 
	d="
M67.513145,72.186127 
	C67.411507,71.941483 67.556816,71.627922 67.978073,71.286209 
	C68.089386,71.544434 67.924744,71.830818 67.513145,72.186127 
z"/>
</svg>