<?xml version="1.0" standalone="no"?>
<!DOCTYPE svg PUBLIC "-//W3C//DTD SVG 20010904//EN"
 "http://www.w3.org/TR/2001/REC-SVG-20010904/DTD/svg10.dtd">
<svg version="1.0" xmlns="http://www.w3.org/2000/svg"
 width="378.000000pt" height="111.000000pt" viewBox="0 0 378.000000 111.000000"
 preserveAspectRatio="xMidYMid meet">

<g transform="translate(0.000000,111.000000) scale(0.100000,-0.100000)"
fill="#000000" stroke="none">
<path d="M2390 852 c-19 -16 -21 -22 -11 -40 20 -38 81 -23 81 20 0 9 -9 22
-19 28 -25 13 -25 13 -51 -8z"/>
<path d="M2589 851 c-20 -16 -22 -23 -13 -38 15 -25 55 -29 71 -7 17 23 16 29
-3 48 -20 21 -27 20 -55 -3z"/>
<path d="M1220 811 c0 -5 14 -14 30 -20 l30 -10 0 -178 c0 -185 -4 -203 -42
-203 -10 0 -18 -4 -18 -10 0 -6 38 -10 95 -10 92 0 125 12 66 23 -31 7 -41 33
-41 114 l0 44 50 -7 c104 -14 200 55 200 142 0 61 -35 97 -108 113 -63 13
-262 15 -262 2z m234 -25 c71 -30 89 -110 37 -168 -26 -29 -34 -32 -87 -33
l-59 0 0 98 c0 76 3 100 15 107 21 14 55 12 94 -4z"/>
<path d="M1678 688 c-43 -11 -49 -25 -15 -30 21 -3 22 -6 22 -128 0 -122 -1
-125 -22 -128 -13 -2 -23 -8 -23 -13 0 -5 36 -9 80 -9 44 0 80 4 80 9 0 5 -10
11 -22 13 -22 3 -23 8 -26 113 -3 104 -2 110 20 127 42 32 88 15 72 -27 -11
-27 35 -18 48 10 9 19 8 29 -6 50 -21 32 -53 32 -97 -1 l-34 -25 -3 25 c-4 28
-13 30 -74 14z"/>
<path d="M2030 677 c-50 -26 -90 -90 -90 -141 0 -42 38 -115 73 -140 21 -16
44 -21 87 -21 66 0 99 18 138 76 20 28 23 44 20 94 -4 72 -26 106 -84 135 -53
26 -91 25 -144 -3z m130 -25 c32 -33 45 -92 35 -159 -12 -80 -77 -124 -137
-92 -63 34 -64 231 -1 268 33 19 73 13 103 -17z"/>
<path d="M2378 688 c-43 -11 -49 -25 -15 -30 21 -3 22 -6 25 -148 4 -165 -5
-210 -48 -242 -35 -25 -30 -41 8 -27 81 31 102 94 102 306 0 171 5 161 -72
141z"/>
<path d="M2605 695 c-5 -2 -22 -6 -37 -9 -34 -8 -36 -18 -5 -31 21 -10 22 -15
22 -130 0 -117 -1 -120 -22 -123 -13 -2 -23 -8 -23 -13 0 -5 36 -9 80 -9 44 0
80 4 80 9 0 5 -10 11 -22 13 -23 3 -23 6 -26 151 -3 154 -4 157 -47 142z"/>
<path d="M2778 688 c-41 -11 -51 -28 -18 -28 29 0 40 -37 40 -130 0 -86 -12
-130 -34 -130 -8 0 -18 -4 -21 -10 -4 -6 23 -10 74 -10 47 0 81 4 81 10 0 6
-9 10 -19 10 -26 0 -31 18 -31 125 0 92 0 94 31 119 38 33 73 33 105 1 24 -24
25 -29 22 -132 -3 -103 -4 -108 -25 -111 -13 -2 -23 -8 -23 -13 0 -5 36 -9 80
-9 44 0 80 2 80 5 0 3 -11 10 -25 15 -25 9 -25 11 -25 118 0 117 5 131 58 147
32 9 81 -13 88 -39 2 -11 4 -66 2 -121 -3 -95 -4 -100 -25 -103 -13 -2 -23 -8
-23 -13 0 -5 36 -9 80 -9 47 0 80 4 80 10 0 6 -9 10 -19 10 -27 0 -31 18 -31
135 0 94 -2 106 -23 130 -34 40 -100 45 -150 11 -46 -31 -44 -31 -67 -3 -15
18 -28 22 -73 22 -44 0 -60 -5 -79 -22 -31 -29 -38 -29 -38 2 0 28 -10 30 -72
13z"/>
<path d="M3475 685 c-44 -24 -66 -46 -81 -82 -45 -106 21 -221 133 -230 162
-13 234 200 101 300 -36 27 -114 33 -153 12z m106 -15 c31 -17 49 -64 49 -130
0 -99 -32 -150 -93 -150 -67 0 -110 96 -88 196 18 79 74 115 132 84z"/>
</g>
</svg>
