<svg version="1.1" id="Layer_1" xmlns="http://www.w3.org/2000/svg" xmlns:xlink="http://www.w3.org/1999/xlink" x="0px" y="0px"
	 width="0px" viewBox="0 0 108 111" enable-background="new 0 0 108 111" xml:space="preserve">
<path fill="#FEFEFF" opacity="1.000000" stroke="none" 
	d="
M65.000000,112.000000 
	C43.333332,112.000000 22.166666,112.000000 1.000000,112.000000 
	C1.000000,75.000000 1.000000,38.000000 1.000000,1.000000 
	C37.000000,1.000000 73.000000,1.000000 109.000000,1.000000 
	C109.000000,38.000000 109.000000,75.000000 109.000000,112.000000 
	C94.500000,112.000000 80.000000,112.000000 65.000000,112.000000 
M6.326179,88.997246 
	C6.221638,89.333572 6.117097,89.669899 5.999586,90.000305 
	C5.999586,90.000305 6.009707,90.011848 5.451351,90.543182 
	C5.596301,92.798431 5.741252,95.053673 5.918292,97.664398 
	C5.918292,97.664398 6.095770,97.974060 6.097364,98.607094 
	C6.730813,99.403290 7.364263,100.199486 7.999377,101.000435 
	C7.999377,101.000435 8.003409,101.003540 8.134838,101.502754 
	C8.425110,101.662132 8.715382,101.821510 9.000817,102.002045 
	C9.000817,102.002045 9.019302,101.989403 9.316341,102.511734 
	C9.854273,102.766701 10.392204,103.021660 11.446461,103.792641 
	C15.638889,105.777748 19.467087,104.888733 22.909027,102.114746 
	C24.421228,100.895996 25.645140,99.319534 27.928453,98.044830 
	C44.619576,97.996628 61.310696,97.948425 78.615227,98.156288 
	C80.064430,99.447510 81.513634,100.738731 82.997948,102.000000 
	C82.997948,102.000000 82.966743,102.030098 83.129372,102.505348 
	C83.421082,102.635460 83.712784,102.765572 84.280609,103.093361 
	C84.280609,103.093361 84.618896,103.123070 84.937187,103.591400 
	C85.289909,103.686066 85.642632,103.780731 86.455597,104.033279 
	C86.455597,104.033279 86.942146,104.028152 87.475166,104.549591 
	C90.348274,103.728287 93.221382,102.906982 95.989647,102.069954 
	C95.989647,102.069954 96.085716,102.115608 96.702911,101.991241 
	C97.166969,101.353127 97.631020,100.715012 98.061768,99.999260 
	C98.061768,99.999260 98.056152,100.083527 98.542244,99.912521 
	C98.666641,99.606209 98.791039,99.299904 99.117065,98.714981 
	C99.117065,98.714981 99.174263,98.375854 99.707382,97.854652 
	C101.853844,92.969521 99.870903,89.035530 97.186592,84.523529 
	C97.457100,83.245949 97.958603,81.969154 97.962990,80.690659 
	C98.017006,64.938538 98.031448,49.185993 97.947777,33.434135 
	C97.939354,31.847458 97.224113,30.264532 97.174957,28.092470 
	C103.025085,20.169441 100.351456,11.441197 91.419479,9.303317 
	C86.748146,8.185228 82.632812,10.686280 78.020653,16.921675 
	C61.013386,16.980482 44.006119,17.039289 26.291851,16.950100 
	C24.732124,14.953043 23.517359,12.477202 21.543446,11.055007 
	C16.920622,7.724283 10.269893,9.148462 7.013868,13.696988 
	C3.588781,18.481688 4.430177,24.431446 8.959819,28.475607 
	C10.473171,29.826757 11.717192,31.479572 12.947766,33.924541 
	C12.996592,49.952991 13.045417,65.981445 12.976308,82.469086 
	C12.976308,82.469086 12.973713,82.943169 12.486356,83.262741 
	C11.937507,83.787148 11.388658,84.311554 10.948034,84.911858 
	C10.948034,84.911858 10.893961,84.791237 10.281865,84.827309 
	C9.839221,85.206329 9.396578,85.585350 8.995834,86.002174 
	C8.995834,86.002174 8.975217,85.949799 8.485749,86.120003 
	C8.306962,86.405289 8.128175,86.690575 8.002243,86.995537 
	C8.002243,86.995537 7.964227,86.953697 7.413405,87.212463 
	C7.195383,87.760384 6.977361,88.308311 6.847738,88.930679 
	C6.847738,88.930679 6.833079,88.816040 6.326179,88.997246 
z"/>
<path fill="#5BA5F3" opacity="1.000000" stroke="none" 
	d="
M78.949577,16.881779 
	C82.632812,10.686280 86.748146,8.185228 91.419479,9.303317 
	C100.351456,11.441197 103.025085,20.169441 96.641327,28.549454 
	C95.404785,30.348669 94.102905,31.685324 94.090355,33.033985 
	C93.942184,48.948986 93.909325,64.866737 94.105042,80.780579 
	C94.123886,82.313332 95.877785,83.824760 96.826241,85.346085 
	C99.870903,89.035530 101.853844,92.969521 99.386803,97.663559 
	C98.768814,87.954330 96.109451,85.203209 86.969704,84.638229 
	C86.919724,84.064125 86.893555,83.834969 87.204147,83.387718 
	C90.618782,83.417694 91.369446,81.905769 91.340775,78.993248 
	C91.201691,64.864952 91.279770,50.734592 91.254852,36.605007 
	C91.251717,34.829258 91.094498,33.053780 91.013863,31.385481 
	C82.716805,30.083256 79.519859,27.021612 78.836655,19.898087 
	C78.838974,18.703756 78.894279,17.792767 78.949577,16.881779 
z"/>
<path fill="#56A4F6" opacity="1.000000" stroke="none" 
	d="
M13.084330,32.994488 
	C11.717192,31.479572 10.473171,29.826757 8.959819,28.475607 
	C4.430177,24.431446 3.588781,18.481688 7.013868,13.696988 
	C10.269893,9.148462 16.920622,7.724283 21.543446,11.055007 
	C23.517359,12.477202 24.732124,14.953043 26.959101,17.290741 
	C29.427946,17.748466 31.238485,17.789429 33.029129,17.999748 
	C36.020199,18.351065 38.998558,18.810637 41.519310,19.243544 
	C37.585739,19.256805 34.086979,18.992243 30.657516,19.365107 
	C29.156301,19.528320 26.815594,20.758997 26.540138,21.908495 
	C25.246222,27.308113 21.866322,29.967010 16.709875,31.062941 
	C15.999542,31.213913 15.493458,32.325897 14.591329,32.994629 
	C13.888006,32.995689 13.486168,32.995090 13.084330,32.994488 
z"/>
<path fill="#54A4F8" opacity="1.000000" stroke="none" 
	d="
M12.973713,82.943169 
	C12.973713,82.943169 12.976308,82.469086 13.340464,82.236992 
	C14.111859,82.005089 14.519097,82.005280 15.162012,82.287354 
	C23.957657,84.750946 25.916367,86.994949 27.029720,96.240868 
	C27.012554,97.017677 27.006250,97.461578 26.999947,97.905487 
	C25.645140,99.319534 24.421228,100.895996 22.909027,102.114746 
	C19.467087,104.888733 15.638889,105.777748 11.078268,103.236572 
	C10.146484,102.450142 9.582893,102.219772 9.019302,101.989403 
	C9.019302,101.989403 9.000817,102.002045 8.898604,101.771652 
	C8.596741,101.266663 8.332414,101.087418 8.003409,101.003540 
	C8.003409,101.003540 7.999377,101.000435 8.000458,100.650436 
	C7.366283,99.524979 6.731027,98.749519 6.095771,97.974060 
	C6.095770,97.974060 5.918292,97.664398 5.939167,97.023735 
	C5.976597,94.259331 5.993152,92.135590 6.009707,90.011848 
	C6.009707,90.011848 5.999586,90.000305 6.228911,89.873589 
	C6.583183,89.436592 6.708130,89.126320 6.833078,88.816040 
	C6.833079,88.816040 6.847738,88.930679 7.106022,88.797073 
	C7.564279,88.093536 7.764253,87.523621 7.964227,86.953697 
	C7.964227,86.953697 8.002243,86.995537 8.212030,86.889061 
	C8.606284,86.504990 8.790750,86.227394 8.975216,85.949799 
	C8.975217,85.949799 8.995834,86.002174 9.290117,85.974335 
	C10.020922,85.561417 10.457442,85.176331 10.893962,84.791237 
	C10.893961,84.791237 10.948034,84.911858 11.235795,84.892609 
	C12.006942,84.229965 12.490328,83.586571 12.973713,82.943169 
z"/>
<path fill="#50A4FC" opacity="1.000000" stroke="none" 
	d="
M86.993515,84.983177 
	C96.109451,85.203209 98.768814,87.954330 99.120239,97.924156 
	C99.174263,98.375854 99.117065,98.714981 98.808716,98.978729 
	C98.245049,99.466164 98.096977,99.746521 98.056152,100.083527 
	C98.056152,100.083527 98.061768,99.999260 97.739395,100.052223 
	C96.973251,100.775330 96.529488,101.445465 96.085716,102.115608 
	C96.085716,102.115608 95.989647,102.069954 95.639404,102.048920 
	C93.478706,101.642853 91.668251,101.257835 89.664719,100.831749 
	C88.938431,101.684448 87.940285,102.856300 86.942146,104.028152 
	C86.942146,104.028152 86.455597,104.033279 86.055618,103.737816 
	C85.310059,103.335922 84.964478,103.229500 84.618896,103.123070 
	C84.618896,103.123070 84.280609,103.093361 84.024231,102.791763 
	C83.557137,102.238770 83.290100,102.085411 82.966743,102.030098 
	C82.966743,102.030098 82.997948,102.000000 82.992035,101.648254 
	C81.990517,99.197792 80.994911,97.099068 80.000725,94.625687 
	C80.005409,93.502136 80.008690,92.753258 80.255363,91.835373 
	C80.664810,91.110855 80.830864,90.555321 80.999016,89.656441 
	C80.984695,88.855339 80.968277,88.397591 80.972061,87.970459 
	C80.992279,88.001068 80.927887,87.965874 81.169373,87.869133 
	C81.591896,87.485512 81.772926,87.198631 81.968857,86.949013 
	C81.983749,86.986275 81.910217,86.954117 82.154915,86.861954 
	C82.583931,86.483322 82.768250,86.196869 82.969238,85.947891 
	C82.985909,85.985374 82.911415,85.951027 83.152977,85.868271 
	C83.593956,85.518173 83.793365,85.250839 83.996300,84.992058 
	C83.999817,85.000610 83.984886,84.988670 84.361015,84.997932 
	C85.489265,84.999184 86.241394,84.991180 86.993515,84.983177 
z"/>
<path fill="#FEFFFF" opacity="1.000000" stroke="none" 
	d="
M97.006416,84.934807 
	C95.877785,83.824760 94.123886,82.313332 94.105042,80.780579 
	C93.909325,64.866737 93.942184,48.948986 94.090355,33.033985 
	C94.102905,31.685324 95.404785,30.348669 96.472290,28.843151 
	C97.224113,30.264532 97.939354,31.847458 97.947777,33.434135 
	C98.031448,49.185993 98.017006,64.938538 97.962990,80.690659 
	C97.958603,81.969154 97.457100,83.245949 97.006416,84.934807 
z"/>
<path fill="#7AB1EC" opacity="1.000000" stroke="none" 
	d="
M41.982265,19.224638 
	C38.998558,18.810637 36.020199,18.351065 33.029129,17.999748 
	C31.238485,17.789429 29.427946,17.748466 27.312599,17.364740 
	C44.006119,17.039289 61.013386,16.980482 78.485115,16.901726 
	C78.894279,17.792767 78.838974,18.703756 78.385658,19.794081 
	C74.525230,19.922304 71.062378,19.891541 67.600494,19.816055 
	C59.060848,19.629847 50.521648,19.423117 41.982265,19.224638 
z"/>
<path fill="#5DA1ED" opacity="1.000000" stroke="none" 
	d="
M27.464199,97.975159 
	C27.006250,97.461578 27.012554,97.017677 27.495043,96.251198 
	C44.645409,95.948059 61.319588,95.967499 77.995659,96.305885 
	C77.998978,97.049965 78.000397,97.475098 78.001816,97.900223 
	C61.310696,97.948425 44.619576,97.996628 27.464199,97.975159 
z"/>
<path fill="#61A4EA" opacity="1.000000" stroke="none" 
	d="
M14.926336,82.005478 
	C14.519097,82.005280 14.111859,82.005089 13.399431,82.007401 
	C13.045417,65.981445 12.996592,49.952991 13.016048,33.459515 
	C13.486168,32.995090 13.888006,32.995689 14.659595,33.459755 
	C14.995011,49.950638 14.960674,65.978058 14.926336,82.005478 
z"/>
<path fill="#5BA5F3" opacity="1.000000" stroke="none" 
	d="
M87.208656,104.288872 
	C87.940285,102.856300 88.938431,101.684448 89.664719,100.831749 
	C91.668251,101.257835 93.478706,101.642853 95.691826,102.056778 
	C93.221382,102.906982 90.348274,103.728287 87.208656,104.288872 
z"/>
<path fill="#5BA5F3" opacity="1.000000" stroke="none" 
	d="
M78.308517,98.028259 
	C78.000397,97.475098 77.998978,97.049965 78.128204,96.110489 
	C78.461723,95.350273 78.702003,95.149094 79.234741,94.995865 
	C79.659622,94.999542 79.829468,94.999939 79.999313,95.000343 
	C80.994911,97.099068 81.990517,99.197792 82.974487,101.663231 
	C81.513634,100.738731 80.064430,99.447510 78.308517,98.028259 
z"/>
<path fill="#61A4EA" opacity="1.000000" stroke="none" 
	d="
M5.730529,90.277512 
	C5.993152,92.135590 5.976597,94.259331 5.923122,96.845993 
	C5.741252,95.053673 5.596301,92.798431 5.730529,90.277512 
z"/>
<path fill="#61A4EA" opacity="1.000000" stroke="none" 
	d="
M6.096568,98.290573 
	C6.731027,98.749519 7.366283,99.524979 7.999625,100.648056 
	C7.364263,100.199486 6.730813,99.403290 6.096568,98.290573 
z"/>
<path fill="#5BA5F3" opacity="1.000000" stroke="none" 
	d="
M96.394318,102.053421 
	C96.529488,101.445465 96.973251,100.775330 97.756050,100.091034 
	C97.631020,100.715012 97.166969,101.353127 96.394318,102.053421 
z"/>
<path fill="#61A4EA" opacity="1.000000" stroke="none" 
	d="
M12.730034,83.102951 
	C12.490328,83.586571 12.006942,84.229965 11.181683,84.854660 
	C11.388658,84.311554 11.937507,83.787148 12.730034,83.102951 
z"/>
<path fill="#61A4EA" opacity="1.000000" stroke="none" 
	d="
M10.587914,84.809273 
	C10.457442,85.176331 10.020922,85.561417 9.269168,85.955437 
	C9.396578,85.585350 9.839221,85.206329 10.587914,84.809273 
z"/>
<path fill="#61A4EA" opacity="1.000000" stroke="none" 
	d="
M9.167822,102.250565 
	C9.582893,102.219772 10.146484,102.450142 10.820107,102.978569 
	C10.392204,103.021660 9.854273,102.766701 9.167822,102.250565 
z"/>
<path fill="#61A4EA" opacity="1.000000" stroke="none" 
	d="
M7.688816,87.083084 
	C7.764253,87.523621 7.564279,88.093536 7.061822,88.759842 
	C6.977361,88.308311 7.195383,87.760384 7.688816,87.083084 
z"/>
<path fill="#61A4EA" opacity="1.000000" stroke="none" 
	d="
M8.069124,101.253143 
	C8.332414,101.087418 8.596741,101.266663 8.901022,101.761078 
	C8.715382,101.821510 8.425110,101.662132 8.069124,101.253143 
z"/>
<path fill="#61A4EA" opacity="1.000000" stroke="none" 
	d="
M8.730482,86.034897 
	C8.790750,86.227394 8.606284,86.504990 8.185602,86.879227 
	C8.128175,86.690575 8.306962,86.405289 8.730482,86.034897 
z"/>
<path fill="#5BA5F3" opacity="1.000000" stroke="none" 
	d="
M83.048058,102.267723 
	C83.290100,102.085411 83.557137,102.238770 83.886177,102.692924 
	C83.712784,102.765572 83.421082,102.635460 83.048058,102.267723 
z"/>
<path fill="#61A4EA" opacity="1.000000" stroke="none" 
	d="
M6.579628,88.906647 
	C6.708130,89.126320 6.583183,89.436592 6.235395,89.876549 
	C6.117097,89.669899 6.221638,89.333572 6.579628,88.906647 
z"/>
<path fill="#5BA5F3" opacity="1.000000" stroke="none" 
	d="
M84.778046,103.357239 
	C84.964478,103.229500 85.310059,103.335922 85.825500,103.658875 
	C85.642632,103.780731 85.289909,103.686066 84.778046,103.357239 
z"/>
<path fill="#5BA5F3" opacity="1.000000" stroke="none" 
	d="
M98.299194,99.998024 
	C98.096977,99.746521 98.245049,99.466164 98.707893,99.118034 
	C98.791039,99.299904 98.666641,99.606209 98.299194,99.998024 
z"/>
<path fill="#FDFEFF" opacity="1.000000" stroke="none" 
	d="
M78.979691,94.992599 
	C78.702003,95.149094 78.461723,95.350273 78.126312,95.791542 
	C61.319588,95.967499 44.645409,95.948059 27.505905,95.918297 
	C25.916367,86.994949 23.957657,84.750946 15.162013,82.287354 
	C14.960674,65.978058 14.995011,49.950638 14.961081,33.458092 
	C15.493458,32.325897 15.999542,31.213913 16.709875,31.062941 
	C21.866322,29.967010 25.246222,27.308113 26.540138,21.908495 
	C26.815594,20.758997 29.156301,19.528320 30.657516,19.365107 
	C34.086979,18.992243 37.585739,19.256805 41.519310,19.243544 
	C50.521648,19.423117 59.060848,19.629847 67.600494,19.816055 
	C71.062378,19.891541 74.525230,19.922304 78.438629,20.077423 
	C79.519859,27.021612 82.716805,30.083256 91.013863,31.385481 
	C91.094498,33.053780 91.251717,34.829258 91.254852,36.605007 
	C91.279770,50.734592 91.201691,64.864952 91.340775,78.993248 
	C91.369446,81.905769 90.618782,83.417694 86.879524,83.469933 
	C85.473724,84.176376 84.729301,84.582520 83.984886,84.988670 
	C83.984886,84.988670 83.999817,85.000610 83.739502,85.054886 
	C83.289932,85.389778 83.100670,85.670403 82.911415,85.951027 
	C82.911415,85.951027 82.985909,85.985374 82.710892,86.021530 
	C82.260651,86.356491 82.085434,86.655304 81.910217,86.954117 
	C81.910217,86.954117 81.983749,86.986275 81.716270,87.029144 
	C81.275162,87.369972 81.101524,87.667923 80.927887,87.965874 
	C80.927887,87.965874 80.992279,88.001068 80.692940,88.098602 
	C80.180588,88.766388 79.967575,89.336639 79.521759,90.088181 
	C79.233841,90.845367 79.178726,91.421257 79.059669,92.368149 
	C78.990387,93.490303 78.985039,94.241447 78.979691,94.992599 
M79.164680,60.134106 
	C79.164680,60.134106 79.300262,60.252274 79.767563,60.106945 
	C80.066139,59.916233 80.227379,59.644127 80.314224,59.281399 
	C80.314224,59.281399 80.377808,59.280205 80.961304,59.091343 
	C84.406876,56.649994 81.893089,55.431213 79.984482,54.016094 
	C79.984482,54.016094 79.901489,54.061806 79.702454,53.530029 
	C79.227242,53.257198 78.752022,52.984371 78.146408,52.987392 
	C78.146408,52.987392 78.247147,52.699581 78.109009,52.230801 
	C77.919296,51.930904 77.647270,51.771202 77.161995,51.820427 
	C77.161995,51.820427 77.247452,51.699753 77.105995,51.231293 
	C76.912674,50.935589 76.639839,50.774734 76.280441,50.688210 
	C76.280441,50.688210 76.281754,50.627285 76.087532,50.023705 
	C74.374817,48.374935 72.662094,46.726166 70.995605,45.008259 
	C70.995605,45.008259 70.923103,45.049000 70.705147,44.521175 
	C70.221947,44.255135 69.738747,43.989098 69.163055,43.998394 
	C69.163055,43.998394 69.236946,43.720917 69.099884,43.244629 
	C68.907234,42.939594 68.630684,42.779331 68.096954,42.868465 
	C68.096954,42.868465 68.236519,42.721859 68.100128,42.246429 
	C67.908058,41.942028 67.632233,41.781803 67.123756,41.853199 
	C67.123756,41.853199 67.233215,41.719666 67.090576,41.241863 
	C66.885704,40.946758 66.603966,40.788208 66.227928,40.720448 
	C66.227928,40.720448 66.261635,40.684914 66.102699,40.123169 
	C65.510445,39.661510 64.918198,39.199852 64.280853,38.766232 
	C64.280853,38.766232 64.235786,38.738140 64.099632,38.255417 
	C63.820557,38.091770 63.541481,37.928123 63.061996,37.902920 
	C63.061996,37.902920 63.234570,37.731026 63.094524,37.254932 
	C62.906586,36.945560 62.631832,36.782219 62.098389,36.863995 
	C62.098389,36.863995 62.236721,36.721790 62.100025,36.245502 
	C61.908047,35.940350 61.631992,35.779282 61.096123,35.870884 
	C61.096123,35.870884 61.238274,35.720993 61.101334,35.245838 
	C60.910225,34.942173 60.635605,34.779282 60.098640,34.865555 
	C60.098640,34.865555 60.243984,34.715206 60.103645,34.244511 
	C59.913445,33.944454 59.641216,33.780991 59.134319,33.835304 
	C59.134319,33.835304 59.247952,33.705002 59.101742,33.236416 
	C58.903687,32.945675 58.629604,32.783031 58.274540,32.693985 
	C58.274540,32.693985 58.280487,32.639584 58.096886,32.057400 
	C57.190807,31.277098 56.284733,30.496796 55.315788,29.717119 
	C55.315788,29.717119 55.256054,29.697521 55.113419,29.233927 
	C54.935047,28.930317 54.670410,28.763796 54.297894,28.663588 
	C54.297894,28.663588 54.288261,28.590214 54.084538,28.025410 
	C53.020599,28.315245 51.956657,28.605080 50.940582,29.003218 
	C50.940582,29.003218 50.923882,28.886187 50.424301,29.051392 
	C50.244289,29.341530 50.064274,29.631668 49.979000,29.975721 
	C49.979000,29.975721 49.919838,29.884165 49.420994,30.052303 
	C49.242931,30.343584 49.064873,30.634865 48.978203,30.977110 
	C48.978203,30.977110 48.923855,30.887688 48.428722,31.060038 
	C48.249245,31.349314 48.069767,31.638590 47.980869,31.978172 
	C47.980869,31.978172 47.926060,31.890247 47.429237,32.059124 
	C47.249207,32.348373 47.069172,32.637627 46.980244,32.977646 
	C46.980244,32.977646 46.925159,32.889084 46.428234,33.058002 
	C46.248123,33.347347 46.068016,33.636692 45.979412,33.976883 
	C45.979412,33.976883 45.924408,33.887806 45.427837,34.056259 
	C45.245949,34.344494 45.064064,34.632732 44.972126,34.976059 
	C44.972126,34.976059 44.923340,34.882538 44.410103,35.054230 
	C44.201168,35.341557 43.992233,35.628880 43.219719,36.247341 
	C36.329521,43.092209 29.439325,49.937073 22.813118,56.519688 
	C32.200718,66.112183 41.005619,75.109261 50.129387,84.690483 
	C51.638432,86.393089 53.131699,88.416397 55.464588,84.631409 
	C56.623909,83.385559 57.783234,82.139709 59.504906,80.664139 
	C60.089073,79.878891 60.673241,79.093643 61.228374,78.295586 
	C61.228374,78.295586 61.230045,78.263893 61.790356,78.164986 
	C62.156670,77.757080 62.522984,77.349174 63.445057,76.654778 
	C64.278801,75.734131 65.112541,74.813492 66.467995,73.679443 
	C66.741249,73.205933 67.014503,72.732422 67.081902,72.145393 
	C67.081902,72.145393 67.281937,72.247849 67.750015,72.093269 
	C68.047241,71.899895 68.213020,71.626747 68.108315,71.058777 
	C68.108315,71.058777 68.281555,71.247360 68.749855,71.092247 
	C69.047470,70.898811 69.213226,70.625420 69.229446,70.246918 
	C69.229446,70.246918 69.263115,70.288780 69.812164,70.167198 
	C70.171700,69.760414 70.531227,69.353638 71.457436,68.646721 
	C72.620476,67.400696 73.783516,66.154671 75.530891,64.664230 
	C76.447556,63.564743 77.364220,62.465260 78.275574,61.308292 
	C78.275574,61.308292 78.295441,61.254089 78.764450,61.108990 
	C79.063896,60.918076 79.226433,60.645515 79.164680,60.134106 
z"/>
<path fill="#5DA1ED" opacity="1.000000" stroke="none" 
	d="
M84.361015,84.997932 
	C84.729301,84.582520 85.473724,84.176376 86.542770,83.688019 
	C86.893555,83.834969 86.919724,84.064125 86.969704,84.638229 
	C86.241394,84.991180 85.489265,84.999184 84.361015,84.997932 
z"/>
<path fill="#5BA5F3" opacity="1.000000" stroke="none" 
	d="
M79.123611,91.997147 
	C79.178726,91.421257 79.233841,90.845367 79.832291,90.121445 
	C80.582726,89.982216 80.789818,89.991005 80.996910,89.999794 
	C80.830864,90.555321 80.664810,91.110855 80.033081,91.832626 
	C79.567413,91.998871 79.123611,91.997147 79.123611,91.997147 
z"/>
<path fill="#5DA1ED" opacity="1.000000" stroke="none" 
	d="
M79.059669,92.368149 
	C79.123611,91.997147 79.567413,91.998871 79.789688,92.001617 
	C80.008690,92.753258 80.005409,93.502136 80.000725,94.625687 
	C79.829468,94.999939 79.659622,94.999542 79.234734,94.995865 
	C78.985039,94.241447 78.990387,93.490303 79.059669,92.368149 
z"/>
<path fill="#5DA1ED" opacity="1.000000" stroke="none" 
	d="
M80.999016,89.656441 
	C80.789818,89.991005 80.582726,89.982216 80.065094,89.940155 
	C79.967575,89.336639 80.180588,88.766388 80.672729,88.067993 
	C80.968277,88.397591 80.984695,88.855339 80.999016,89.656441 
z"/>
<path fill="#5DA1ED" opacity="1.000000" stroke="none" 
	d="
M83.152977,85.868271 
	C83.100670,85.670403 83.289932,85.389778 83.735992,85.046333 
	C83.793365,85.250839 83.593956,85.518173 83.152977,85.868271 
z"/>
<path fill="#5DA1ED" opacity="1.000000" stroke="none" 
	d="
M81.169373,87.869133 
	C81.101524,87.667923 81.275162,87.369972 81.701370,86.991882 
	C81.772926,87.198631 81.591896,87.485512 81.169373,87.869133 
z"/>
<path fill="#5DA1ED" opacity="1.000000" stroke="none" 
	d="
M82.154915,86.861954 
	C82.085434,86.655304 82.260651,86.356491 82.694221,85.984047 
	C82.768250,86.196869 82.583931,86.483322 82.154915,86.861954 
z"/>
<path fill="#51A4FA" opacity="1.000000" stroke="none" 
	d="
M74.946564,64.908653 
	C73.783516,66.154671 72.620476,67.400696 70.878494,68.838104 
	C69.954063,69.449242 69.608589,69.869011 69.263115,70.288780 
	C69.263115,70.288780 69.229446,70.246918 68.967804,70.285904 
	C68.564621,70.632378 68.423088,70.939873 68.281555,71.247360 
	C68.281555,71.247360 68.108315,71.058777 67.907295,71.192276 
	C67.564827,71.633141 67.423386,71.940491 67.281937,72.247849 
	C67.281937,72.247849 67.081902,72.145393 66.887123,72.248184 
	C66.443657,72.864929 66.194969,73.378891 65.946274,73.892853 
	C65.112541,74.813492 64.278801,75.734131 62.871704,76.838394 
	C61.942249,77.435966 61.586147,77.849930 61.230042,78.263893 
	C61.230045,78.263893 61.228374,78.295586 60.885624,78.241173 
	C60.009434,79.089127 59.475998,79.991501 58.942558,80.893867 
	C57.783234,82.139709 56.623909,83.385559 54.837898,84.639786 
	C52.744316,84.467560 51.277416,84.286942 49.810516,84.106331 
	C41.005619,75.109261 32.200718,66.112183 22.813118,56.519688 
	C29.439325,49.937073 36.329521,43.092209 43.767521,36.006874 
	C44.517994,35.471783 44.720669,35.177162 44.923340,34.882538 
	C44.923340,34.882538 44.972126,34.976059 45.176872,34.865425 
	C45.562550,34.465797 45.743481,34.176804 45.924408,33.887806 
	C45.924408,33.887806 45.979412,33.976883 46.182198,33.866463 
	C46.565044,33.467056 46.745102,33.178070 46.925156,32.889084 
	C46.925159,32.889084 46.980244,32.977646 47.182976,32.867058 
	C47.565826,32.467724 47.745941,32.178986 47.926060,31.890247 
	C47.926060,31.890247 47.980869,31.978172 48.183731,31.867125 
	C48.565685,31.466614 48.744770,31.177151 48.923855,30.887688 
	C48.923855,30.887688 48.978203,30.977110 49.180588,30.865204 
	C49.561928,30.463587 49.740883,30.173876 49.919838,29.884165 
	C49.919838,29.884165 49.979000,29.975721 50.180305,29.864002 
	C50.562366,29.463583 50.743122,29.174885 50.923882,28.886185 
	C50.923882,28.886187 50.940582,29.003218 51.344170,28.976944 
	C52.594593,28.830517 53.441429,28.710365 54.288261,28.590214 
	C54.288261,28.590214 54.297894,28.663588 54.317276,28.971382 
	C54.643124,29.418625 54.949589,29.558073 55.256054,29.697521 
	C55.256054,29.697521 55.315788,29.717119 55.238899,30.116394 
	C56.201504,31.223639 57.240997,31.931610 58.280487,32.639584 
	C58.280487,32.639584 58.274540,32.693985 58.299690,32.992218 
	C58.632545,33.428635 58.940247,33.566818 59.247952,33.705002 
	C59.247952,33.705002 59.134319,33.835304 59.229218,34.065685 
	C59.630741,34.435780 59.937363,34.575493 60.243984,34.715206 
	C60.243984,34.715206 60.098640,34.865555 60.208908,35.082108 
	C60.625542,35.439438 60.931908,35.580215 61.238274,35.720993 
	C61.238274,35.720993 61.096123,35.870884 61.206551,36.086746 
	C61.623558,36.442333 61.930138,36.582062 62.236721,36.721790 
	C62.236721,36.721790 62.098389,36.863995 62.207413,37.084377 
	C62.622482,37.446846 62.928528,37.588936 63.234570,37.731026 
	C63.234570,37.731026 63.061996,37.902920 63.188950,38.104057 
	C63.622532,38.449509 63.929157,38.593826 64.235786,38.738140 
	C64.235786,38.738140 64.280853,38.766232 64.237564,39.109734 
	C64.883400,39.863792 65.572517,40.274353 66.261635,40.684914 
	C66.261635,40.684914 66.227928,40.720448 66.268692,41.012596 
	C66.617378,41.443054 66.925301,41.581360 67.233215,41.719666 
	C67.233215,41.719666 67.123756,41.853199 67.220581,42.079193 
	C67.623779,42.444080 67.930145,42.582970 68.236519,42.721859 
	C68.236519,42.721859 68.096954,42.868465 68.206528,43.086327 
	C68.623047,43.443096 68.929993,43.582005 69.236946,43.720917 
	C69.236946,43.720917 69.163055,43.998394 69.256348,44.161537 
	C69.874130,44.566120 70.398621,44.807560 70.923103,45.049000 
	C70.923103,45.049000 70.995605,45.008259 70.986153,45.404961 
	C72.745049,47.410202 74.513405,49.018745 76.281754,50.627285 
	C76.281754,50.627285 76.280441,50.688210 76.302322,50.989883 
	C76.631950,51.427628 76.939705,51.563690 77.247452,51.699753 
	C77.247452,51.699753 77.161995,51.820427 77.243774,52.056984 
	C77.632751,52.428890 77.939949,52.564236 78.247147,52.699581 
	C78.247147,52.699581 78.146408,52.987392 78.249779,53.149769 
	C78.869263,53.562031 79.385376,53.811916 79.901489,54.061806 
	C79.901489,54.061806 79.984482,54.016094 79.976814,54.486000 
	C80.105370,56.397335 80.241585,57.838772 80.377808,59.280205 
	C80.377808,59.280205 80.314224,59.281399 80.010178,59.302765 
	C79.570839,59.633511 79.435547,59.942890 79.300262,60.252274 
	C79.300262,60.252274 79.164680,60.134106 78.935745,60.229820 
	C78.569687,60.635056 78.432564,60.944572 78.295441,61.254089 
	C78.295441,61.254089 78.275574,61.308292 77.909088,61.250481 
	C76.677254,62.431332 75.811913,63.669994 74.946564,64.908653 
z"/>
<path fill="#72ADEC" opacity="1.000000" stroke="none" 
	d="
M76.184647,50.325493 
	C74.513405,49.018745 72.745049,47.410202 70.963043,45.439529 
	C72.662094,46.726166 74.374817,48.374935 76.184647,50.325493 
z"/>
<path fill="#72ADEC" opacity="1.000000" stroke="none" 
	d="
M80.669556,59.185776 
	C80.241585,57.838772 80.105370,56.397335 79.953033,54.526970 
	C81.893089,55.431213 84.406876,56.649994 80.669556,59.185776 
z"/>
<path fill="#72ADEC" opacity="1.000000" stroke="none" 
	d="
M49.969955,84.398407 
	C51.277416,84.286942 52.744316,84.467560 54.553764,84.786606 
	C53.131699,88.416397 51.638432,86.393089 49.969955,84.398407 
z"/>
<path fill="#72ADEC" opacity="1.000000" stroke="none" 
	d="
M58.188686,32.348492 
	C57.240997,31.931610 56.201504,31.223639 55.270332,30.116079 
	C56.284733,30.496796 57.190807,31.277098 58.188686,32.348492 
z"/>
<path fill="#72ADEC" opacity="1.000000" stroke="none" 
	d="
M75.238731,64.786438 
	C75.811913,63.669994 76.677254,62.431332 77.911743,61.279221 
	C77.364220,62.465260 76.447556,63.564743 75.238731,64.786438 
z"/>
<path fill="#72ADEC" opacity="1.000000" stroke="none" 
	d="
M54.186401,28.307812 
	C53.441429,28.710365 52.594593,28.830517 51.320240,28.922791 
	C51.956657,28.605080 53.020599,28.315245 54.186401,28.307812 
z"/>
<path fill="#72ADEC" opacity="1.000000" stroke="none" 
	d="
M59.223732,80.779007 
	C59.475998,79.991501 60.009434,79.089127 60.900139,78.247581 
	C60.673241,79.093643 60.089073,79.878891 59.223732,80.779007 
z"/>
<path fill="#72ADEC" opacity="1.000000" stroke="none" 
	d="
M66.182167,40.404041 
	C65.572517,40.274353 64.883400,39.863792 64.260117,39.095711 
	C64.918198,39.199852 65.510445,39.661510 66.182167,40.404041 
z"/>
<path fill="#72ADEC" opacity="1.000000" stroke="none" 
	d="
M69.537643,70.227989 
	C69.608589,69.869011 69.954063,69.449242 70.595154,68.988167 
	C70.531227,69.353638 70.171700,69.760414 69.537643,70.227989 
z"/>
<path fill="#72ADEC" opacity="1.000000" stroke="none" 
	d="
M61.510201,78.214439 
	C61.586147,77.849930 61.942249,77.435966 62.593822,76.981636 
	C62.522984,77.349174 62.156670,77.757080 61.510201,78.214439 
z"/>
<path fill="#72ADEC" opacity="1.000000" stroke="none" 
	d="
M66.207138,73.786148 
	C66.194969,73.378891 66.443657,72.864929 66.990051,72.304939 
	C67.014503,72.732422 66.741249,73.205933 66.207138,73.786148 
z"/>
<path fill="#72ADEC" opacity="1.000000" stroke="none" 
	d="
M70.814125,44.785088 
	C70.398621,44.807560 69.874130,44.566120 69.302597,44.023872 
	C69.738747,43.989098 70.221947,44.255135 70.814125,44.785088 
z"/>
<path fill="#72ADEC" opacity="1.000000" stroke="none" 
	d="
M79.801971,53.795918 
	C79.385376,53.811916 78.869263,53.562031 78.314980,53.011845 
	C78.752022,52.984371 79.227242,53.257198 79.801971,53.795918 
z"/>
<path fill="#72ADEC" opacity="1.000000" stroke="none" 
	d="
M62.168373,36.483646 
	C61.930138,36.582062 61.623558,36.442333 61.294418,36.032452 
	C61.631992,35.779282 61.908047,35.940350 62.168373,36.483646 
z"/>
<path fill="#72ADEC" opacity="1.000000" stroke="none" 
	d="
M50.674088,28.968788 
	C50.743122,29.174885 50.562366,29.463583 50.132935,29.837044 
	C50.064274,29.631668 50.244289,29.341530 50.674088,28.968788 
z"/>
<path fill="#72ADEC" opacity="1.000000" stroke="none" 
	d="
M55.184738,29.465725 
	C54.949589,29.558073 54.643124,29.418625 54.328087,29.006771 
	C54.670410,28.763796 54.935047,28.930317 55.184738,29.465725 
z"/>
<path fill="#72ADEC" opacity="1.000000" stroke="none" 
	d="
M49.670418,29.968235 
	C49.740883,30.173876 49.561928,30.463587 49.134892,30.839722 
	C49.064873,30.634865 49.242931,30.343584 49.670418,29.968235 
z"/>
<path fill="#72ADEC" opacity="1.000000" stroke="none" 
	d="
M48.676289,30.973862 
	C48.744770,31.177151 48.565685,31.466614 48.138443,31.841970 
	C48.069767,31.638590 48.249245,31.349314 48.676289,30.973862 
z"/>
<path fill="#72ADEC" opacity="1.000000" stroke="none" 
	d="
M47.677650,31.974686 
	C47.745941,32.178986 47.565826,32.467724 47.137428,32.841671 
	C47.069172,32.637627 47.249207,32.348373 47.677650,31.974686 
z"/>
<path fill="#72ADEC" opacity="1.000000" stroke="none" 
	d="
M46.676697,32.973541 
	C46.745102,33.178070 46.565044,33.467056 46.136444,33.841042 
	C46.068016,33.636692 46.248123,33.347347 46.676697,32.973541 
z"/>
<path fill="#72ADEC" opacity="1.000000" stroke="none" 
	d="
M59.174847,33.470711 
	C58.940247,33.566818 58.632545,33.428635 58.302170,33.019470 
	C58.629604,32.783031 58.903687,32.945675 59.174847,33.470711 
z"/>
<path fill="#72ADEC" opacity="1.000000" stroke="none" 
	d="
M45.676125,33.972031 
	C45.743481,34.176804 45.562550,34.465797 45.131897,34.837883 
	C45.064064,34.632732 45.245949,34.344494 45.676125,33.972031 
z"/>
<path fill="#72ADEC" opacity="1.000000" stroke="none" 
	d="
M60.173813,34.479858 
	C59.937363,34.575493 59.630741,34.435780 59.305542,34.025093 
	C59.641216,33.780991 59.913445,33.944454 60.173813,34.479858 
z"/>
<path fill="#72ADEC" opacity="1.000000" stroke="none" 
	d="
M44.666721,34.968384 
	C44.720669,35.177162 44.517994,35.471783 44.049309,35.841309 
	C43.992233,35.628880 44.201168,35.341557 44.666721,34.968384 
z"/>
<path fill="#72ADEC" opacity="1.000000" stroke="none" 
	d="
M61.169804,35.483414 
	C60.931908,35.580215 60.625542,35.439438 60.298325,35.027912 
	C60.635605,34.779282 60.910225,34.942173 61.169804,35.483414 
z"/>
<path fill="#72ADEC" opacity="1.000000" stroke="none" 
	d="
M67.515976,72.170563 
	C67.423386,71.940491 67.564827,71.633141 67.976814,71.299805 
	C68.213020,71.626747 68.047241,71.899895 67.515976,72.170563 
z"/>
<path fill="#72ADEC" opacity="1.000000" stroke="none" 
	d="
M63.164547,37.492981 
	C62.928528,37.588936 62.622482,37.446846 62.293350,37.034836 
	C62.631832,36.782219 62.906586,36.945560 63.164547,37.492981 
z"/>
<path fill="#72ADEC" opacity="1.000000" stroke="none" 
	d="
M64.167709,38.496780 
	C63.929157,38.593826 63.622532,38.449509 63.289154,38.034836 
	C63.541481,37.928123 63.820557,38.091770 64.167709,38.496780 
z"/>
<path fill="#72ADEC" opacity="1.000000" stroke="none" 
	d="
M67.161896,41.480762 
	C66.925301,41.581360 66.617378,41.443054 66.277412,41.035480 
	C66.603966,40.788208 66.885704,40.946758 67.161896,41.480762 
z"/>
<path fill="#72ADEC" opacity="1.000000" stroke="none" 
	d="
M68.168320,42.484146 
	C67.930145,42.582970 67.623779,42.444080 67.295029,42.035477 
	C67.632233,41.781803 67.908058,41.942028 68.168320,42.484146 
z"/>
<path fill="#72ADEC" opacity="1.000000" stroke="none" 
	d="
M69.168411,43.482773 
	C68.929993,43.582005 68.623047,43.443096 68.293167,43.034012 
	C68.630684,42.779331 68.907234,42.939594 69.168411,43.482773 
z"/>
<path fill="#72ADEC" opacity="1.000000" stroke="none" 
	d="
M77.176727,51.465523 
	C76.939705,51.563690 76.631950,51.427628 76.305847,51.020149 
	C76.639839,50.774734 76.912674,50.935589 77.176727,51.465523 
z"/>
<path fill="#72ADEC" opacity="1.000000" stroke="none" 
	d="
M78.178078,52.465191 
	C77.939949,52.564236 77.632751,52.428890 77.309235,52.022617 
	C77.647270,51.771202 77.919296,51.930904 78.178078,52.465191 
z"/>
<path fill="#72ADEC" opacity="1.000000" stroke="none" 
	d="
M79.533913,60.179611 
	C79.435547,59.942890 79.570839,59.633511 79.978714,59.307377 
	C80.227379,59.644127 80.066139,59.916233 79.533913,60.179611 
z"/>
<path fill="#72ADEC" opacity="1.000000" stroke="none" 
	d="
M78.529945,61.181541 
	C78.432564,60.944572 78.569687,60.635056 78.979439,60.308418 
	C79.226433,60.645515 79.063896,60.918076 78.529945,61.181541 
z"/>
<path fill="#72ADEC" opacity="1.000000" stroke="none" 
	d="
M68.515709,71.169800 
	C68.423088,70.939873 68.564621,70.632378 68.976631,70.298477 
	C69.213226,70.625420 69.047470,70.898811 68.515709,71.169800 
z"/>
</svg>